mtllib CityPalette.mtl
o Sage
usemtl Sage
v -5.50000 0.00000 -4.00000
v 5.50000 0.00000 -4.00000
v 5.50000 3.10000 -4.00000
v -5.50000 3.10000 -4.00000
v -5.50000 0.00000 4.00000
v 5.50000 0.00000 4.00000
v 5.50000 3.10000 4.00000
v -5.50000 3.10000 4.00000
vt -1.37500 0.00000
vt -1.37500 0.77500
vt 1.37500 0.77500
vt 1.37500 0.00000
f 1/1 4/2 3/3 2/4
vt -1.37500 0.00000
vt 1.37500 0.00000
vt 1.37500 0.77500
vt -1.37500 0.77500
f 5/5 6/6 7/7 8/8
vt -1.00000 0.00000
vt 1.00000 0.00000
vt 1.00000 0.77500
vt -1.00000 0.77500
f 1/9 5/10 8/11 4/12
vt -1.00000 0.00000
vt -1.00000 0.77500
vt 1.00000 0.77500
vt 1.00000 0.00000
f 2/13 3/14 7/15 6/16
vt -1.37500 -1.00000
vt -1.37500 1.00000
vt 1.37500 1.00000
vt 1.37500 -1.00000
f 4/17 8/18 7/19 3/20
vt -1.37500 -1.00000
vt 1.37500 -1.00000
vt 1.37500 1.00000
vt -1.37500 1.00000
f 1/21 2/22 6/23 5/24
o Base
usemtl Base
v -5.57000 0.00000 -4.07000
v 5.57000 0.00000 -4.07000
v 5.57000 0.46000 -4.07000
v -5.57000 0.46000 -4.07000
v -5.57000 0.00000 4.07000
v 5.57000 0.00000 4.07000
v 5.57000 0.46000 4.07000
v -5.57000 0.46000 4.07000
v -4.40000 0.00000 -6.00000
v 4.40000 0.00000 -6.00000
v 4.40000 0.18000 -6.00000
v -4.40000 0.18000 -6.00000
v -4.40000 0.00000 -4.00000
v 4.40000 0.00000 -4.00000
v 4.40000 0.18000 -4.00000
v -4.40000 0.18000 -4.00000
vt -1.39250 0.00000
vt -1.39250 0.11500
vt 1.39250 0.11500
vt 1.39250 0.00000
f 9/25 12/26 11/27 10/28
vt -1.39250 0.00000
vt 1.39250 0.00000
vt 1.39250 0.11500
vt -1.39250 0.11500
f 13/29 14/30 15/31 16/32
vt -1.01750 0.00000
vt 1.01750 0.00000
vt 1.01750 0.11500
vt -1.01750 0.11500
f 9/33 13/34 16/35 12/36
vt -1.01750 0.00000
vt -1.01750 0.11500
vt 1.01750 0.11500
vt 1.01750 0.00000
f 10/37 11/38 15/39 14/40
vt -1.39250 -1.01750
vt -1.39250 1.01750
vt 1.39250 1.01750
vt 1.39250 -1.01750
f 12/41 16/42 15/43 11/44
vt -1.39250 -1.01750
vt 1.39250 -1.01750
vt 1.39250 1.01750
vt -1.39250 1.01750
f 9/45 10/46 14/47 13/48
vt -1.10000 0.00000
vt -1.10000 0.04500
vt 1.10000 0.04500
vt 1.10000 0.00000
f 17/49 20/50 19/51 18/52
vt -1.10000 0.00000
vt 1.10000 0.00000
vt 1.10000 0.04500
vt -1.10000 0.04500
f 21/53 22/54 23/55 24/56
vt -1.50000 0.00000
vt -1.00000 0.00000
vt -1.00000 0.04500
vt -1.50000 0.04500
f 17/57 21/58 24/59 20/60
vt -1.50000 0.00000
vt -1.50000 0.04500
vt -1.00000 0.04500
vt -1.00000 0.00000
f 18/61 19/62 23/63 22/64
vt -1.10000 -1.50000
vt -1.10000 -1.00000
vt 1.10000 -1.00000
vt 1.10000 -1.50000
f 20/65 24/66 23/67 19/68
vt -1.10000 -1.50000
vt 1.10000 -1.50000
vt 1.10000 -1.00000
vt -1.10000 -1.00000
f 17/69 18/70 22/71 21/72
o Trim
usemtl Trim
v -4.33000 0.84000 -4.13000
v -2.71000 0.84000 -4.13000
v -2.71000 2.76000 -4.13000
v -4.33000 2.76000 -4.13000
v -4.33000 0.84000 -3.93000
v -2.71000 0.84000 -3.93000
v -2.71000 2.76000 -3.93000
v -4.33000 2.76000 -3.93000
v -4.39500 0.81000 -4.38000
v -2.64500 0.81000 -4.38000
v -2.64500 0.91000 -4.38000
v -4.39500 0.91000 -4.38000
v -4.39500 0.81000 -3.98000
v -2.64500 0.81000 -3.98000
v -2.64500 0.91000 -3.98000
v -4.39500 0.91000 -3.98000
v -2.71000 0.84000 4.13000
v -4.33000 0.84000 4.13000
v -4.33000 2.76000 4.13000
v -2.71000 2.76000 4.13000
v -2.71000 0.84000 3.93000
v -4.33000 0.84000 3.93000
v -4.33000 2.76000 3.93000
v -2.71000 2.76000 3.93000
v -2.64500 0.81000 4.38000
v -4.39500 0.81000 4.38000
v -4.39500 0.91000 4.38000
v -2.64500 0.91000 4.38000
v -2.64500 0.81000 3.98000
v -4.39500 0.81000 3.98000
v -4.39500 0.91000 3.98000
v -2.64500 0.91000 3.98000
v 2.71000 0.84000 -4.13000
v 4.33000 0.84000 -4.13000
v 4.33000 2.76000 -4.13000
v 2.71000 2.76000 -4.13000
v 2.71000 0.84000 -3.93000
v 4.33000 0.84000 -3.93000
v 4.33000 2.76000 -3.93000
v 2.71000 2.76000 -3.93000
v 2.64500 0.81000 -4.38000
v 4.39500 0.81000 -4.38000
v 4.39500 0.91000 -4.38000
v 2.64500 0.91000 -4.38000
v 2.64500 0.81000 -3.98000
v 4.39500 0.81000 -3.98000
v 4.39500 0.91000 -3.98000
v 2.64500 0.91000 -3.98000
v 4.33000 0.84000 4.13000
v 2.71000 0.84000 4.13000
v 2.71000 2.76000 4.13000
v 4.33000 2.76000 4.13000
v 4.33000 0.84000 3.93000
v 2.71000 0.84000 3.93000
v 2.71000 2.76000 3.93000
v 4.33000 2.76000 3.93000
v 4.39500 0.81000 4.38000
v 2.64500 0.81000 4.38000
v 2.64500 0.91000 4.38000
v 4.39500 0.91000 4.38000
v 4.39500 0.81000 3.98000
v 2.64500 0.81000 3.98000
v 2.64500 0.91000 3.98000
v 4.39500 0.91000 3.98000
v -5.63000 0.84000 -1.35000
v -5.63000 0.84000 -2.97000
v -5.63000 2.76000 -2.97000
v -5.63000 2.76000 -1.35000
v -5.43000 0.84000 -1.35000
v -5.43000 0.84000 -2.97000
v -5.43000 2.76000 -2.97000
v -5.43000 2.76000 -1.35000
v -5.88000 0.81000 -1.28500
v -5.88000 0.81000 -3.03500
v -5.88000 0.91000 -3.03500
v -5.88000 0.91000 -1.28500
v -5.48000 0.81000 -1.28500
v -5.48000 0.81000 -3.03500
v -5.48000 0.91000 -3.03500
v -5.48000 0.91000 -1.28500
v -5.63000 0.84000 2.97000
v -5.63000 0.84000 1.35000
v -5.63000 2.76000 1.35000
v -5.63000 2.76000 2.97000
v -5.43000 0.84000 2.97000
v -5.43000 0.84000 1.35000
v -5.43000 2.76000 1.35000
v -5.43000 2.76000 2.97000
v -5.88000 0.81000 3.03500
v -5.88000 0.81000 1.28500
v -5.88000 0.91000 1.28500
v -5.88000 0.91000 3.03500
v -5.48000 0.81000 3.03500
v -5.48000 0.81000 1.28500
v -5.48000 0.91000 1.28500
v -5.48000 0.91000 3.03500
v 5.63000 0.84000 -2.97000
v 5.63000 0.84000 -1.35000
v 5.63000 2.76000 -1.35000
v 5.63000 2.76000 -2.97000
v 5.43000 0.84000 -2.97000
v 5.43000 0.84000 -1.35000
v 5.43000 2.76000 -1.35000
v 5.43000 2.76000 -2.97000
v 5.88000 0.81000 -3.03500
v 5.88000 0.81000 -1.28500
v 5.88000 0.91000 -1.28500
v 5.88000 0.91000 -3.03500
v 5.48000 0.81000 -3.03500
v 5.48000 0.81000 -1.28500
v 5.48000 0.91000 -1.28500
v 5.48000 0.91000 -3.03500
v 5.63000 0.84000 1.35000
v 5.63000 0.84000 2.97000
v 5.63000 2.76000 2.97000
v 5.63000 2.76000 1.35000
v 5.43000 0.84000 1.35000
v 5.43000 0.84000 2.97000
v 5.43000 2.76000 2.97000
v 5.43000 2.76000 1.35000
v 5.88000 0.81000 1.28500
v 5.88000 0.81000 3.03500
v 5.88000 0.91000 3.03500
v 5.88000 0.91000 1.28500
v 5.48000 0.81000 1.28500
v 5.48000 0.81000 3.03500
v 5.48000 0.91000 3.03500
v 5.48000 0.91000 1.28500
v -0.85000 0.00000 -4.21500
v 0.85000 0.00000 -4.21500
v 0.85000 2.70000 -4.21500
v -0.85000 2.70000 -4.21500
v -0.85000 0.00000 -3.96500
v 0.85000 0.00000 -3.96500
v 0.85000 2.70000 -3.96500
v -0.85000 2.70000 -3.96500
v 0.33250 1.00000 -4.36500
v 0.36750 1.00000 -4.36500
v 0.36750 1.40000 -4.36500
v 0.33250 1.40000 -4.36500
v 0.33250 1.00000 -4.31500
v 0.36750 1.00000 -4.31500
v 0.36750 1.40000 -4.31500
v 0.33250 1.40000 -4.31500
v -5.57500 3.20500 -4.00000
v -5.42500 3.20500 -4.00000
v -5.42500 3.65500 -4.00000
v -5.57500 3.65500 -4.00000
v -5.57500 3.20500 4.00000
v -5.42500 3.20500 4.00000
v -5.42500 3.65500 4.00000
v -5.57500 3.65500 4.00000
v 5.42500 3.20500 -4.00000
v 5.57500 3.20500 -4.00000
v 5.57500 3.65500 -4.00000
v 5.42500 3.65500 -4.00000
v 5.42500 3.20500 4.00000
v 5.57500 3.20500 4.00000
v 5.57500 3.65500 4.00000
v 5.42500 3.65500 4.00000
v -5.50000 3.20500 -4.07500
v 5.50000 3.20500 -4.07500
v 5.50000 3.65500 -4.07500
v -5.50000 3.65500 -4.07500
v -5.50000 3.20500 -3.92500
v 5.50000 3.20500 -3.92500
v 5.50000 3.65500 -3.92500
v -5.50000 3.65500 -3.92500
v -5.50000 3.20500 3.92500
v 5.50000 3.20500 3.92500
v 5.50000 3.65500 3.92500
v -5.50000 3.65500 3.92500
v -5.50000 3.20500 4.07500
v 5.50000 3.20500 4.07500
v 5.50000 3.65500 4.07500
v -5.50000 3.65500 4.07500
vt 0.21000 -1.08250
vt 0.69000 -1.08250
vt 0.69000 -0.67750
vt 0.21000 -0.67750
f 25/73 28/74 27/75 26/76
vt 0.21000 -1.08250
vt 0.21000 -0.67750
vt 0.69000 -0.67750
vt 0.69000 -1.08250
f 29/77 30/78 31/79 32/80
vt 0.21000 -1.03250
vt 0.21000 -0.98250
vt 0.69000 -0.98250
vt 0.69000 -1.03250
f 25/81 29/82 32/83 28/84
vt 0.21000 -1.03250
vt 0.69000 -1.03250
vt 0.69000 -0.98250
vt 0.21000 -0.98250
f 26/85 27/86 31/87 30/88
vt -1.08250 -1.03250
vt -1.08250 -0.98250
vt -0.67750 -0.98250
vt -0.67750 -1.03250
f 28/89 32/90 31/91 27/92
vt -1.08250 -1.03250
vt -0.67750 -1.03250
vt -0.67750 -0.98250
vt -1.08250 -0.98250
f 25/93 26/94 30/95 29/96
vt -1.09875 0.20250
vt -1.09875 0.22750
vt -0.66125 0.22750
vt -0.66125 0.20250
f 33/97 36/98 35/99 34/100
vt -1.09875 0.20250
vt -0.66125 0.20250
vt -0.66125 0.22750
vt -1.09875 0.22750
f 37/101 38/102 39/103 40/104
vt -1.09500 0.20250
vt -0.99500 0.20250
vt -0.99500 0.22750
vt -1.09500 0.22750
f 33/105 37/106 40/107 36/108
vt -1.09500 0.20250
vt -1.09500 0.22750
vt -0.99500 0.22750
vt -0.99500 0.20250
f 34/109 35/110 39/111 38/112
vt -1.09875 -1.09500
vt -1.09875 -0.99500
vt -0.66125 -0.99500
vt -0.66125 -1.09500
f 36/113 40/114 39/115 35/116
vt -1.09875 -1.09500
vt -0.66125 -1.09500
vt -0.66125 -0.99500
vt -1.09875 -0.99500
f 33/117 34/118 38/119 37/120
vt 0.21000 -0.67750
vt 0.69000 -0.67750
vt 0.69000 -1.08250
vt 0.21000 -1.08250
f 41/121 44/122 43/123 42/124
vt 0.21000 -0.67750
vt 0.21000 -1.08250
vt 0.69000 -1.08250
vt 0.69000 -0.67750
f 45/125 46/126 47/127 48/128
vt 0.21000 1.03250
vt 0.21000 0.98250
vt 0.69000 0.98250
vt 0.69000 1.03250
f 41/129 45/130 48/131 44/132
vt 0.21000 1.03250
vt 0.69000 1.03250
vt 0.69000 0.98250
vt 0.21000 0.98250
f 42/133 43/134 47/135 46/136
vt -0.67750 1.03250
vt -0.67750 0.98250
vt -1.08250 0.98250
vt -1.08250 1.03250
f 44/137 48/138 47/139 43/140
vt -0.67750 1.03250
vt -1.08250 1.03250
vt -1.08250 0.98250
vt -0.67750 0.98250
f 41/141 42/142 46/143 45/144
vt -0.66125 0.20250
vt -0.66125 0.22750
vt -1.09875 0.22750
vt -1.09875 0.20250
f 49/145 52/146 51/147 50/148
vt -0.66125 0.20250
vt -1.09875 0.20250
vt -1.09875 0.22750
vt -0.66125 0.22750
f 53/149 54/150 55/151 56/152
vt 1.09500 0.20250
vt 0.99500 0.20250
vt 0.99500 0.22750
vt 1.09500 0.22750
f 49/153 53/154 56/155 52/156
vt 1.09500 0.20250
vt 1.09500 0.22750
vt 0.99500 0.22750
vt 0.99500 0.20250
f 50/157 51/158 55/159 54/160
vt -0.66125 1.09500
vt -0.66125 0.99500
vt -1.09875 0.99500
vt -1.09875 1.09500
f 52/161 56/162 55/163 51/164
vt -0.66125 1.09500
vt -1.09875 1.09500
vt -1.09875 0.99500
vt -0.66125 0.99500
f 49/165 50/166 54/167 53/168
vt 0.21000 0.67750
vt 0.69000 0.67750
vt 0.69000 1.08250
vt 0.21000 1.08250
f 57/169 60/170 59/171 58/172
vt 0.21000 0.67750
vt 0.21000 1.08250
vt 0.69000 1.08250
vt 0.69000 0.67750
f 61/173 62/174 63/175 64/176
vt 0.21000 -1.03250
vt 0.21000 -0.98250
vt 0.69000 -0.98250
vt 0.69000 -1.03250
f 57/177 61/178 64/179 60/180
vt 0.21000 -1.03250
vt 0.69000 -1.03250
vt 0.69000 -0.98250
vt 0.21000 -0.98250
f 58/181 59/182 63/183 62/184
vt 0.67750 -1.03250
vt 0.67750 -0.98250
vt 1.08250 -0.98250
vt 1.08250 -1.03250
f 60/185 64/186 63/187 59/188
vt 0.67750 -1.03250
vt 1.08250 -1.03250
vt 1.08250 -0.98250
vt 0.67750 -0.98250
f 57/189 58/190 62/191 61/192
vt 0.66125 0.20250
vt 0.66125 0.22750
vt 1.09875 0.22750
vt 1.09875 0.20250
f 65/193 68/194 67/195 66/196
vt 0.66125 0.20250
vt 1.09875 0.20250
vt 1.09875 0.22750
vt 0.66125 0.22750
f 69/197 70/198 71/199 72/200
vt -1.09500 0.20250
vt -0.99500 0.20250
vt -0.99500 0.22750
vt -1.09500 0.22750
f 65/201 69/202 72/203 68/204
vt -1.09500 0.20250
vt -1.09500 0.22750
vt -0.99500 0.22750
vt -0.99500 0.20250
f 66/205 67/206 71/207 70/208
vt 0.66125 -1.09500
vt 0.66125 -0.99500
vt 1.09875 -0.99500
vt 1.09875 -1.09500
f 68/209 72/210 71/211 67/212
vt 0.66125 -1.09500
vt 1.09875 -1.09500
vt 1.09875 -0.99500
vt 0.66125 -0.99500
f 65/213 66/214 70/215 69/216
vt 0.21000 1.08250
vt 0.69000 1.08250
vt 0.69000 0.67750
vt 0.21000 0.67750
f 73/217 76/218 75/219 74/220
vt 0.21000 1.08250
vt 0.21000 0.67750
vt 0.69000 0.67750
vt 0.69000 1.08250
f 77/221 78/222 79/223 80/224
vt 0.21000 1.03250
vt 0.21000 0.98250
vt 0.69000 0.98250
vt 0.69000 1.03250
f 73/225 77/226 80/227 76/228
vt 0.21000 1.03250
vt 0.69000 1.03250
vt 0.69000 0.98250
vt 0.21000 0.98250
f 74/229 75/230 79/231 78/232
vt 1.08250 1.03250
vt 1.08250 0.98250
vt 0.67750 0.98250
vt 0.67750 1.03250
f 76/233 80/234 79/235 75/236
vt 1.08250 1.03250
vt 0.67750 1.03250
vt 0.67750 0.98250
vt 1.08250 0.98250
f 73/237 74/238 78/239 77/240
vt 1.09875 0.20250
vt 1.09875 0.22750
vt 0.66125 0.22750
vt 0.66125 0.20250
f 81/241 84/242 83/243 82/244
vt 1.09875 0.20250
vt 0.66125 0.20250
vt 0.66125 0.22750
vt 1.09875 0.22750
f 85/245 86/246 87/247 88/248
vt 1.09500 0.20250
vt 0.99500 0.20250
vt 0.99500 0.22750
vt 1.09500 0.22750
f 81/249 85/250 88/251 84/252
vt 1.09500 0.20250
vt 1.09500 0.22750
vt 0.99500 0.22750
vt 0.99500 0.20250
f 82/253 83/254 87/255 86/256
vt 1.09875 1.09500
vt 1.09875 0.99500
vt 0.66125 0.99500
vt 0.66125 1.09500
f 84/257 88/258 87/259 83/260
vt 1.09875 1.09500
vt 0.66125 1.09500
vt 0.66125 0.99500
vt 1.09875 0.99500
f 81/261 82/262 86/263 85/264
vt 0.21000 -0.33750
vt 0.69000 -0.33750
vt 0.69000 -0.74250
vt 0.21000 -0.74250
f 89/265 92/266 91/267 90/268
vt 0.21000 -0.33750
vt 0.21000 -0.74250
vt 0.69000 -0.74250
vt 0.69000 -0.33750
f 93/269 94/270 95/271 96/272
vt 0.21000 -1.40750
vt 0.21000 -1.35750
vt 0.69000 -1.35750
vt 0.69000 -1.40750
f 89/273 93/274 96/275 92/276
vt 0.21000 -1.40750
vt 0.69000 -1.40750
vt 0.69000 -1.35750
vt 0.21000 -1.35750
f 90/277 91/278 95/279 94/280
vt -0.33750 -1.40750
vt -0.33750 -1.35750
vt -0.74250 -1.35750
vt -0.74250 -1.40750
f 92/281 96/282 95/283 91/284
vt -0.33750 -1.40750
vt -0.74250 -1.40750
vt -0.74250 -1.35750
vt -0.33750 -1.35750
f 89/285 90/286 94/287 93/288
vt -0.32125 0.20250
vt -0.32125 0.22750
vt -0.75875 0.22750
vt -0.75875 0.20250
f 97/289 100/290 99/291 98/292
vt -0.32125 0.20250
vt -0.75875 0.20250
vt -0.75875 0.22750
vt -0.32125 0.22750
f 101/293 102/294 103/295 104/296
vt -1.47000 0.20250
vt -1.37000 0.20250
vt -1.37000 0.22750
vt -1.47000 0.22750
f 97/297 101/298 104/299 100/300
vt -1.47000 0.20250
vt -1.47000 0.22750
vt -1.37000 0.22750
vt -1.37000 0.20250
f 98/301 99/302 103/303 102/304
vt -0.32125 -1.47000
vt -0.32125 -1.37000
vt -0.75875 -1.37000
vt -0.75875 -1.47000
f 100/305 104/306 103/307 99/308
vt -0.32125 -1.47000
vt -0.75875 -1.47000
vt -0.75875 -1.37000
vt -0.32125 -1.37000
f 97/309 98/310 102/311 101/312
vt 0.21000 0.74250
vt 0.69000 0.74250
vt 0.69000 0.33750
vt 0.21000 0.33750
f 105/313 108/314 107/315 106/316
vt 0.21000 0.74250
vt 0.21000 0.33750
vt 0.69000 0.33750
vt 0.69000 0.74250
f 109/317 110/318 111/319 112/320
vt 0.21000 -1.40750
vt 0.21000 -1.35750
vt 0.69000 -1.35750
vt 0.69000 -1.40750
f 105/321 109/322 112/323 108/324
vt 0.21000 -1.40750
vt 0.69000 -1.40750
vt 0.69000 -1.35750
vt 0.21000 -1.35750
f 106/325 107/326 111/327 110/328
vt 0.74250 -1.40750
vt 0.74250 -1.35750
vt 0.33750 -1.35750
vt 0.33750 -1.40750
f 108/329 112/330 111/331 107/332
vt 0.74250 -1.40750
vt 0.33750 -1.40750
vt 0.33750 -1.35750
vt 0.74250 -1.35750
f 105/333 106/334 110/335 109/336
vt 0.75875 0.20250
vt 0.75875 0.22750
vt 0.32125 0.22750
vt 0.32125 0.20250
f 113/337 116/338 115/339 114/340
vt 0.75875 0.20250
vt 0.32125 0.20250
vt 0.32125 0.22750
vt 0.75875 0.22750
f 117/341 118/342 119/343 120/344
vt -1.47000 0.20250
vt -1.37000 0.20250
vt -1.37000 0.22750
vt -1.47000 0.22750
f 113/345 117/346 120/347 116/348
vt -1.47000 0.20250
vt -1.47000 0.22750
vt -1.37000 0.22750
vt -1.37000 0.20250
f 114/349 115/350 119/351 118/352
vt 0.75875 -1.47000
vt 0.75875 -1.37000
vt 0.32125 -1.37000
vt 0.32125 -1.47000
f 116/353 120/354 119/355 115/356
vt 0.75875 -1.47000
vt 0.32125 -1.47000
vt 0.32125 -1.37000
vt 0.75875 -1.37000
f 113/357 114/358 118/359 117/360
vt 0.21000 -0.74250
vt 0.69000 -0.74250
vt 0.69000 -0.33750
vt 0.21000 -0.33750
f 121/361 124/362 123/363 122/364
vt 0.21000 -0.74250
vt 0.21000 -0.33750
vt 0.69000 -0.33750
vt 0.69000 -0.74250
f 125/365 126/366 127/367 128/368
vt 0.21000 1.40750
vt 0.21000 1.35750
vt 0.69000 1.35750
vt 0.69000 1.40750
f 121/369 125/370 128/371 124/372
vt 0.21000 1.40750
vt 0.69000 1.40750
vt 0.69000 1.35750
vt 0.21000 1.35750
f 122/373 123/374 127/375 126/376
vt -0.74250 1.40750
vt -0.74250 1.35750
vt -0.33750 1.35750
vt -0.33750 1.40750
f 124/377 128/378 127/379 123/380
vt -0.74250 1.40750
vt -0.33750 1.40750
vt -0.33750 1.35750
vt -0.74250 1.35750
f 121/381 122/382 126/383 125/384
vt -0.75875 0.20250
vt -0.75875 0.22750
vt -0.32125 0.22750
vt -0.32125 0.20250
f 129/385 132/386 131/387 130/388
vt -0.75875 0.20250
vt -0.32125 0.20250
vt -0.32125 0.22750
vt -0.75875 0.22750
f 133/389 134/390 135/391 136/392
vt 1.47000 0.20250
vt 1.37000 0.20250
vt 1.37000 0.22750
vt 1.47000 0.22750
f 129/393 133/394 136/395 132/396
vt 1.47000 0.20250
vt 1.47000 0.22750
vt 1.37000 0.22750
vt 1.37000 0.20250
f 130/397 131/398 135/399 134/400
vt -0.75875 1.47000
vt -0.75875 1.37000
vt -0.32125 1.37000
vt -0.32125 1.47000
f 132/401 136/402 135/403 131/404
vt -0.75875 1.47000
vt -0.32125 1.47000
vt -0.32125 1.37000
vt -0.75875 1.37000
f 129/405 130/406 134/407 133/408
vt 0.21000 0.33750
vt 0.69000 0.33750
vt 0.69000 0.74250
vt 0.21000 0.74250
f 137/409 140/410 139/411 138/412
vt 0.21000 0.33750
vt 0.21000 0.74250
vt 0.69000 0.74250
vt 0.69000 0.33750
f 141/413 142/414 143/415 144/416
vt 0.21000 1.40750
vt 0.21000 1.35750
vt 0.69000 1.35750
vt 0.69000 1.40750
f 137/417 141/418 144/419 140/420
vt 0.21000 1.40750
vt 0.69000 1.40750
vt 0.69000 1.35750
vt 0.21000 1.35750
f 138/421 139/422 143/423 142/424
vt 0.33750 1.40750
vt 0.33750 1.35750
vt 0.74250 1.35750
vt 0.74250 1.40750
f 140/425 144/426 143/427 139/428
vt 0.33750 1.40750
vt 0.74250 1.40750
vt 0.74250 1.35750
vt 0.33750 1.35750
f 137/429 138/430 142/431 141/432
vt 0.32125 0.20250
vt 0.32125 0.22750
vt 0.75875 0.22750
vt 0.75875 0.20250
f 145/433 148/434 147/435 146/436
vt 0.32125 0.20250
vt 0.75875 0.20250
vt 0.75875 0.22750
vt 0.32125 0.22750
f 149/437 150/438 151/439 152/440
vt 1.47000 0.20250
vt 1.37000 0.20250
vt 1.37000 0.22750
vt 1.47000 0.22750
f 145/441 149/442 152/443 148/444
vt 1.47000 0.20250
vt 1.47000 0.22750
vt 1.37000 0.22750
vt 1.37000 0.20250
f 146/445 147/446 151/447 150/448
vt 0.32125 1.47000
vt 0.32125 1.37000
vt 0.75875 1.37000
vt 0.75875 1.47000
f 148/449 152/450 151/451 147/452
vt 0.32125 1.47000
vt 0.75875 1.47000
vt 0.75875 1.37000
vt 0.32125 1.37000
f 145/453 146/454 150/455 149/456
vt 0.00000 -0.21250
vt 0.67500 -0.21250
vt 0.67500 0.21250
vt 0.00000 0.21250
f 153/457 156/458 155/459 154/460
vt 0.00000 -0.21250
vt 0.00000 0.21250
vt 0.67500 0.21250
vt 0.67500 -0.21250
f 157/461 158/462 159/463 160/464
vt 0.00000 -1.05375
vt 0.00000 -0.99125
vt 0.67500 -0.99125
vt 0.67500 -1.05375
f 153/465 157/466 160/467 156/468
vt 0.00000 -1.05375
vt 0.67500 -1.05375
vt 0.67500 -0.99125
vt 0.00000 -0.99125
f 154/469 155/470 159/471 158/472
vt -0.21250 -1.05375
vt -0.21250 -0.99125
vt 0.21250 -0.99125
vt 0.21250 -1.05375
f 156/473 160/474 159/475 155/476
vt -0.21250 -1.05375
vt 0.21250 -1.05375
vt 0.21250 -0.99125
vt -0.21250 -0.99125
f 153/477 154/478 158/479 157/480
vt 0.25000 0.08312
vt 0.35000 0.08312
vt 0.35000 0.09187
vt 0.25000 0.09187
f 161/481 164/482 163/483 162/484
vt 0.25000 0.08312
vt 0.25000 0.09187
vt 0.35000 0.09187
vt 0.35000 0.08312
f 165/485 166/486 167/487 168/488
vt 0.25000 -1.09125
vt 0.25000 -1.07875
vt 0.35000 -1.07875
vt 0.35000 -1.09125
f 161/489 165/490 168/491 164/492
vt 0.25000 -1.09125
vt 0.35000 -1.09125
vt 0.35000 -1.07875
vt 0.25000 -1.07875
f 162/493 163/494 167/495 166/496
vt -1.09125 0.08312
vt -1.07875 0.08312
vt -1.07875 0.09187
vt -1.09125 0.09187
f 164/497 168/498 167/499 163/500
vt -1.09125 0.08312
vt -1.09125 0.09187
vt -1.07875 0.09187
vt -1.07875 0.08312
f 161/501 162/502 166/503 165/504
vt 0.80125 -1.39375
vt 0.91375 -1.39375
vt 0.91375 -1.35625
vt 0.80125 -1.35625
f 169/505 172/506 171/507 170/508
vt 0.80125 -1.39375
vt 0.80125 -1.35625
vt 0.91375 -1.35625
vt 0.91375 -1.39375
f 173/509 174/510 175/511 176/512
vt -1.00000 0.80125
vt 1.00000 0.80125
vt 1.00000 0.91375
vt -1.00000 0.91375
f 169/513 173/514 176/515 172/516
vt -1.00000 0.80125
vt -1.00000 0.91375
vt 1.00000 0.91375
vt 1.00000 0.80125
f 170/517 171/518 175/519 174/520
vt -1.00000 -1.39375
vt 1.00000 -1.39375
vt 1.00000 -1.35625
vt -1.00000 -1.35625
f 172/521 176/522 175/523 171/524
vt -1.00000 -1.39375
vt -1.00000 -1.35625
vt 1.00000 -1.35625
vt 1.00000 -1.39375
f 169/525 170/526 174/527 173/528
vt 0.80125 1.35625
vt 0.91375 1.35625
vt 0.91375 1.39375
vt 0.80125 1.39375
f 177/529 180/530 179/531 178/532
vt 0.80125 1.35625
vt 0.80125 1.39375
vt 0.91375 1.39375
vt 0.91375 1.35625
f 181/533 182/534 183/535 184/536
vt -1.00000 0.80125
vt 1.00000 0.80125
vt 1.00000 0.91375
vt -1.00000 0.91375
f 177/537 181/538 184/539 180/540
vt -1.00000 0.80125
vt -1.00000 0.91375
vt 1.00000 0.91375
vt 1.00000 0.80125
f 178/541 179/542 183/543 182/544
vt -1.00000 1.35625
vt 1.00000 1.35625
vt 1.00000 1.39375
vt -1.00000 1.39375
f 180/545 184/546 183/547 179/548
vt -1.00000 1.35625
vt -1.00000 1.39375
vt 1.00000 1.39375
vt 1.00000 1.35625
f 177/549 178/550 182/551 181/552
vt -1.37500 0.80125
vt -1.37500 0.91375
vt 1.37500 0.91375
vt 1.37500 0.80125
f 185/553 188/554 187/555 186/556
vt -1.37500 0.80125
vt 1.37500 0.80125
vt 1.37500 0.91375
vt -1.37500 0.91375
f 189/557 190/558 191/559 192/560
vt 0.80125 -1.01875
vt 0.80125 -0.98125
vt 0.91375 -0.98125
vt 0.91375 -1.01875
f 185/561 189/562 192/563 188/564
vt 0.80125 -1.01875
vt 0.91375 -1.01875
vt 0.91375 -0.98125
vt 0.80125 -0.98125
f 186/565 187/566 191/567 190/568
vt -1.37500 -1.01875
vt -1.37500 -0.98125
vt 1.37500 -0.98125
vt 1.37500 -1.01875
f 188/569 192/570 191/571 187/572
vt -1.37500 -1.01875
vt 1.37500 -1.01875
vt 1.37500 -0.98125
vt -1.37500 -0.98125
f 185/573 186/574 190/575 189/576
vt -1.37500 0.80125
vt -1.37500 0.91375
vt 1.37500 0.91375
vt 1.37500 0.80125
f 193/577 196/578 195/579 194/580
vt -1.37500 0.80125
vt 1.37500 0.80125
vt 1.37500 0.91375
vt -1.37500 0.91375
f 197/581 198/582 199/583 200/584
vt 0.80125 0.98125
vt 0.80125 1.01875
vt 0.91375 1.01875
vt 0.91375 0.98125
f 193/585 197/586 200/587 196/588
vt 0.80125 0.98125
vt 0.91375 0.98125
vt 0.91375 1.01875
vt 0.80125 1.01875
f 194/589 195/590 199/591 198/592
vt -1.37500 0.98125
vt -1.37500 1.01875
vt 1.37500 1.01875
vt 1.37500 0.98125
f 196/593 200/594 199/595 195/596
vt -1.37500 0.98125
vt 1.37500 0.98125
vt 1.37500 1.01875
vt -1.37500 1.01875
f 193/597 194/598 198/599 197/600
o Glass
usemtl Glass
v -4.22000 0.95000 -4.16500
v -2.82000 0.95000 -4.16500
v -2.82000 2.65000 -4.16500
v -4.22000 2.65000 -4.16500
v -4.22000 0.95000 -4.12500
v -2.82000 0.95000 -4.12500
v -2.82000 2.65000 -4.12500
v -4.22000 2.65000 -4.12500
v -2.82000 0.95000 4.16500
v -4.22000 0.95000 4.16500
v -4.22000 2.65000 4.16500
v -2.82000 2.65000 4.16500
v -2.82000 0.95000 4.12500
v -4.22000 0.95000 4.12500
v -4.22000 2.65000 4.12500
v -2.82000 2.65000 4.12500
v 2.82000 0.95000 -4.16500
v 4.22000 0.95000 -4.16500
v 4.22000 2.65000 -4.16500
v 2.82000 2.65000 -4.16500
v 2.82000 0.95000 -4.12500
v 4.22000 0.95000 -4.12500
v 4.22000 2.65000 -4.12500
v 2.82000 2.65000 -4.12500
v 4.22000 0.95000 4.16500
v 2.82000 0.95000 4.16500
v 2.82000 2.65000 4.16500
v 4.22000 2.65000 4.16500
v 4.22000 0.95000 4.12500
v 2.82000 0.95000 4.12500
v 2.82000 2.65000 4.12500
v 4.22000 2.65000 4.12500
v -5.66500 0.95000 -1.46000
v -5.66500 0.95000 -2.86000
v -5.66500 2.65000 -2.86000
v -5.66500 2.65000 -1.46000
v -5.62500 0.95000 -1.46000
v -5.62500 0.95000 -2.86000
v -5.62500 2.65000 -2.86000
v -5.62500 2.65000 -1.46000
v -5.66500 0.95000 2.86000
v -5.66500 0.95000 1.46000
v -5.66500 2.65000 1.46000
v -5.66500 2.65000 2.86000
v -5.62500 0.95000 2.86000
v -5.62500 0.95000 1.46000
v -5.62500 2.65000 1.46000
v -5.62500 2.65000 2.86000
v 5.66500 0.95000 -2.86000
v 5.66500 0.95000 -1.46000
v 5.66500 2.65000 -1.46000
v 5.66500 2.65000 -2.86000
v 5.62500 0.95000 -2.86000
v 5.62500 0.95000 -1.46000
v 5.62500 2.65000 -1.46000
v 5.62500 2.65000 -2.86000
v 5.66500 0.95000 1.46000
v 5.66500 0.95000 2.86000
v 5.66500 2.65000 2.86000
v 5.66500 2.65000 1.46000
v 5.62500 0.95000 1.46000
v 5.62500 0.95000 2.86000
v 5.62500 2.65000 2.86000
v 5.62500 2.65000 1.46000
v -0.70000 0.00000 -4.26000
v 0.70000 0.00000 -4.26000
v 0.70000 2.50000 -4.26000
v -0.70000 2.50000 -4.26000
v -0.70000 0.00000 -4.20000
v 0.70000 0.00000 -4.20000
v 0.70000 2.50000 -4.20000
v -0.70000 2.50000 -4.20000
vt 0.23750 -1.05500
vt 0.66250 -1.05500
vt 0.66250 -0.70500
vt 0.23750 -0.70500
f 201/601 204/602 203/603 202/604
vt 0.23750 -1.05500
vt 0.23750 -0.70500
vt 0.66250 -0.70500
vt 0.66250 -1.05500
f 205/605 206/606 207/607 208/608
vt 0.23750 -1.04125
vt 0.23750 -1.03125
vt 0.66250 -1.03125
vt 0.66250 -1.04125
f 201/609 205/610 208/611 204/612
vt 0.23750 -1.04125
vt 0.66250 -1.04125
vt 0.66250 -1.03125
vt 0.23750 -1.03125
f 202/613 203/614 207/615 206/616
vt -1.05500 -1.04125
vt -1.05500 -1.03125
vt -0.70500 -1.03125
vt -0.70500 -1.04125
f 204/617 208/618 207/619 203/620
vt -1.05500 -1.04125
vt -0.70500 -1.04125
vt -0.70500 -1.03125
vt -1.05500 -1.03125
f 201/621 202/622 206/623 205/624
vt 0.23750 -0.70500
vt 0.66250 -0.70500
vt 0.66250 -1.05500
vt 0.23750 -1.05500
f 209/625 212/626 211/627 210/628
vt 0.23750 -0.70500
vt 0.23750 -1.05500
vt 0.66250 -1.05500
vt 0.66250 -0.70500
f 213/629 214/630 215/631 216/632
vt 0.23750 1.04125
vt 0.23750 1.03125
vt 0.66250 1.03125
vt 0.66250 1.04125
f 209/633 213/634 216/635 212/636
vt 0.23750 1.04125
vt 0.66250 1.04125
vt 0.66250 1.03125
vt 0.23750 1.03125
f 210/637 211/638 215/639 214/640
vt -0.70500 1.04125
vt -0.70500 1.03125
vt -1.05500 1.03125
vt -1.05500 1.04125
f 212/641 216/642 215/643 211/644
vt -0.70500 1.04125
vt -1.05500 1.04125
vt -1.05500 1.03125
vt -0.70500 1.03125
f 209/645 210/646 214/647 213/648
vt 0.23750 0.70500
vt 0.66250 0.70500
vt 0.66250 1.05500
vt 0.23750 1.05500
f 217/649 220/650 219/651 218/652
vt 0.23750 0.70500
vt 0.23750 1.05500
vt 0.66250 1.05500
vt 0.66250 0.70500
f 221/653 222/654 223/655 224/656
vt 0.23750 -1.04125
vt 0.23750 -1.03125
vt 0.66250 -1.03125
vt 0.66250 -1.04125
f 217/657 221/658 224/659 220/660
vt 0.23750 -1.04125
vt 0.66250 -1.04125
vt 0.66250 -1.03125
vt 0.23750 -1.03125
f 218/661 219/662 223/663 222/664
vt 0.70500 -1.04125
vt 0.70500 -1.03125
vt 1.05500 -1.03125
vt 1.05500 -1.04125
f 220/665 224/666 223/667 219/668
vt 0.70500 -1.04125
vt 1.05500 -1.04125
vt 1.05500 -1.03125
vt 0.70500 -1.03125
f 217/669 218/670 222/671 221/672
vt 0.23750 1.05500
vt 0.66250 1.05500
vt 0.66250 0.70500
vt 0.23750 0.70500
f 225/673 228/674 227/675 226/676
vt 0.23750 1.05500
vt 0.23750 0.70500
vt 0.66250 0.70500
vt 0.66250 1.05500
f 229/677 230/678 231/679 232/680
vt 0.23750 1.04125
vt 0.23750 1.03125
vt 0.66250 1.03125
vt 0.66250 1.04125
f 225/681 229/682 232/683 228/684
vt 0.23750 1.04125
vt 0.66250 1.04125
vt 0.66250 1.03125
vt 0.23750 1.03125
f 226/685 227/686 231/687 230/688
vt 1.05500 1.04125
vt 1.05500 1.03125
vt 0.70500 1.03125
vt 0.70500 1.04125
f 228/689 232/690 231/691 227/692
vt 1.05500 1.04125
vt 0.70500 1.04125
vt 0.70500 1.03125
vt 1.05500 1.03125
f 225/693 226/694 230/695 229/696
vt 0.23750 -0.36500
vt 0.66250 -0.36500
vt 0.66250 -0.71500
vt 0.23750 -0.71500
f 233/697 236/698 235/699 234/700
vt 0.23750 -0.36500
vt 0.23750 -0.71500
vt 0.66250 -0.71500
vt 0.66250 -0.36500
f 237/701 238/702 239/703 240/704
vt 0.23750 -1.41625
vt 0.23750 -1.40625
vt 0.66250 -1.40625
vt 0.66250 -1.41625
f 233/705 237/706 240/707 236/708
vt 0.23750 -1.41625
vt 0.66250 -1.41625
vt 0.66250 -1.40625
vt 0.23750 -1.40625
f 234/709 235/710 239/711 238/712
vt -0.36500 -1.41625
vt -0.36500 -1.40625
vt -0.71500 -1.40625
vt -0.71500 -1.41625
f 236/713 240/714 239/715 235/716
vt -0.36500 -1.41625
vt -0.71500 -1.41625
vt -0.71500 -1.40625
vt -0.36500 -1.40625
f 233/717 234/718 238/719 237/720
vt 0.23750 0.71500
vt 0.66250 0.71500
vt 0.66250 0.36500
vt 0.23750 0.36500
f 241/721 244/722 243/723 242/724
vt 0.23750 0.71500
vt 0.23750 0.36500
vt 0.66250 0.36500
vt 0.66250 0.71500
f 245/725 246/726 247/727 248/728
vt 0.23750 -1.41625
vt 0.23750 -1.40625
vt 0.66250 -1.40625
vt 0.66250 -1.41625
f 241/729 245/730 248/731 244/732
vt 0.23750 -1.41625
vt 0.66250 -1.41625
vt 0.66250 -1.40625
vt 0.23750 -1.40625
f 242/733 243/734 247/735 246/736
vt 0.71500 -1.41625
vt 0.71500 -1.40625
vt 0.36500 -1.40625
vt 0.36500 -1.41625
f 244/737 248/738 247/739 243/740
vt 0.71500 -1.41625
vt 0.36500 -1.41625
vt 0.36500 -1.40625
vt 0.71500 -1.40625
f 241/741 242/742 246/743 245/744
vt 0.23750 -0.71500
vt 0.66250 -0.71500
vt 0.66250 -0.36500
vt 0.23750 -0.36500
f 249/745 252/746 251/747 250/748
vt 0.23750 -0.71500
vt 0.23750 -0.36500
vt 0.66250 -0.36500
vt 0.66250 -0.71500
f 253/749 254/750 255/751 256/752
vt 0.23750 1.41625
vt 0.23750 1.40625
vt 0.66250 1.40625
vt 0.66250 1.41625
f 249/753 253/754 256/755 252/756
vt 0.23750 1.41625
vt 0.66250 1.41625
vt 0.66250 1.40625
vt 0.23750 1.40625
f 250/757 251/758 255/759 254/760
vt -0.71500 1.41625
vt -0.71500 1.40625
vt -0.36500 1.40625
vt -0.36500 1.41625
f 252/761 256/762 255/763 251/764
vt -0.71500 1.41625
vt -0.36500 1.41625
vt -0.36500 1.40625
vt -0.71500 1.40625
f 249/765 250/766 254/767 253/768
vt 0.23750 0.36500
vt 0.66250 0.36500
vt 0.66250 0.71500
vt 0.23750 0.71500
f 257/769 260/770 259/771 258/772
vt 0.23750 0.36500
vt 0.23750 0.71500
vt 0.66250 0.71500
vt 0.66250 0.36500
f 261/773 262/774 263/775 264/776
vt 0.23750 1.41625
vt 0.23750 1.40625
vt 0.66250 1.40625
vt 0.66250 1.41625
f 257/777 261/778 264/779 260/780
vt 0.23750 1.41625
vt 0.66250 1.41625
vt 0.66250 1.40625
vt 0.23750 1.40625
f 258/781 259/782 263/783 262/784
vt 0.36500 1.41625
vt 0.36500 1.40625
vt 0.71500 1.40625
vt 0.71500 1.41625
f 260/785 264/786 263/787 259/788
vt 0.36500 1.41625
vt 0.71500 1.41625
vt 0.71500 1.40625
vt 0.36500 1.40625
f 257/789 258/790 262/791 261/792
vt 0.00000 -0.17500
vt 0.62500 -0.17500
vt 0.62500 0.17500
vt 0.00000 0.17500
f 265/793 268/794 267/795 266/796
vt 0.00000 -0.17500
vt 0.00000 0.17500
vt 0.62500 0.17500
vt 0.62500 -0.17500
f 269/797 270/798 271/799 272/800
vt 0.00000 -1.06500
vt 0.00000 -1.05000
vt 0.62500 -1.05000
vt 0.62500 -1.06500
f 265/801 269/802 272/803 268/804
vt 0.00000 -1.06500
vt 0.62500 -1.06500
vt 0.62500 -1.05000
vt 0.00000 -1.05000
f 266/805 267/806 271/807 270/808
vt -0.17500 -1.06500
vt -0.17500 -1.05000
vt 0.17500 -1.05000
vt 0.17500 -1.06500
f 268/809 272/810 271/811 267/812
vt -0.17500 -1.06500
vt 0.17500 -1.06500
vt 0.17500 -1.05000
vt -0.17500 -1.05000
f 265/813 266/814 270/815 269/816
o Metal
usemtl Metal
v -3.54750 0.95000 -4.20500
v -3.49250 0.95000 -4.20500
v -3.49250 2.65000 -4.20500
v -3.54750 2.65000 -4.20500
v -3.54750 0.95000 -4.15500
v -3.49250 0.95000 -4.15500
v -3.49250 2.65000 -4.15500
v -3.54750 2.65000 -4.15500
v -3.49250 0.95000 4.20500
v -3.54750 0.95000 4.20500
v -3.54750 2.65000 4.20500
v -3.49250 2.65000 4.20500
v -3.49250 0.95000 4.15500
v -3.54750 0.95000 4.15500
v -3.54750 2.65000 4.15500
v -3.49250 2.65000 4.15500
v 3.49250 0.95000 -4.20500
v 3.54750 0.95000 -4.20500
v 3.54750 2.65000 -4.20500
v 3.49250 2.65000 -4.20500
v 3.49250 0.95000 -4.15500
v 3.54750 0.95000 -4.15500
v 3.54750 2.65000 -4.15500
v 3.49250 2.65000 -4.15500
v 3.54750 0.95000 4.20500
v 3.49250 0.95000 4.20500
v 3.49250 2.65000 4.20500
v 3.54750 2.65000 4.20500
v 3.54750 0.95000 4.15500
v 3.49250 0.95000 4.15500
v 3.49250 2.65000 4.15500
v 3.54750 2.65000 4.15500
v -5.70500 0.95000 -2.13250
v -5.70500 0.95000 -2.18750
v -5.70500 2.65000 -2.18750
v -5.70500 2.65000 -2.13250
v -5.65500 0.95000 -2.13250
v -5.65500 0.95000 -2.18750
v -5.65500 2.65000 -2.18750
v -5.65500 2.65000 -2.13250
v -5.70500 0.95000 2.18750
v -5.70500 0.95000 2.13250
v -5.70500 2.65000 2.13250
v -5.70500 2.65000 2.18750
v -5.65500 0.95000 2.18750
v -5.65500 0.95000 2.13250
v -5.65500 2.65000 2.13250
v -5.65500 2.65000 2.18750
v 5.70500 0.95000 -2.18750
v 5.70500 0.95000 -2.13250
v 5.70500 2.65000 -2.13250
v 5.70500 2.65000 -2.18750
v 5.65500 0.95000 -2.18750
v 5.65500 0.95000 -2.13250
v 5.65500 2.65000 -2.13250
v 5.65500 2.65000 -2.18750
v 5.70500 0.95000 2.13250
v 5.70500 0.95000 2.18750
v 5.70500 2.65000 2.18750
v 5.70500 2.65000 2.13250
v 5.65500 0.95000 2.13250
v 5.65500 0.95000 2.18750
v 5.65500 2.65000 2.18750
v 5.65500 2.65000 2.13250
v -0.02750 0.00000 -4.30500
v 0.02750 0.00000 -4.30500
v 0.02750 2.50000 -4.30500
v -0.02750 2.50000 -4.30500
v -0.02750 0.00000 -4.25500
v 0.02750 0.00000 -4.25500
v 0.02750 2.50000 -4.25500
v -0.02750 2.50000 -4.25500
v -1.30000 2.79000 -5.45000
v 1.30000 2.79000 -5.45000
v 1.30000 2.91000 -5.45000
v -1.30000 2.91000 -5.45000
v -1.30000 2.79000 -3.95000
v 1.30000 2.79000 -3.95000
v 1.30000 2.91000 -3.95000
v -1.30000 2.91000 -3.95000
v -5.41750 0.00000 -4.15750
v -5.34250 0.00000 -4.15750
v -5.34250 3.10000 -4.15750
v -5.41750 3.10000 -4.15750
v -5.41750 0.00000 -4.08250
v -5.34250 0.00000 -4.08250
v -5.34250 3.10000 -4.08250
v -5.41750 3.10000 -4.08250
v 5.34250 0.00000 -4.15750
v 5.41750 0.00000 -4.15750
v 5.41750 3.10000 -4.15750
v 5.34250 3.10000 -4.15750
v 5.34250 0.00000 -4.08250
v 5.41750 0.00000 -4.08250
v 5.41750 3.10000 -4.08250
v 5.34250 3.10000 -4.08250
v 1.10000 3.27500 -0.90000
v 3.30000 3.27500 -0.90000
v 3.30000 4.12500 -0.90000
v 1.10000 4.12500 -0.90000
v 1.10000 3.27500 0.90000
v 3.30000 3.27500 0.90000
v 3.30000 4.12500 0.90000
v 1.10000 4.12500 0.90000
vt 0.23750 -0.88687
vt 0.66250 -0.88687
vt 0.66250 -0.87313
vt 0.23750 -0.87313
f 273/817 276/818 275/819 274/820
vt 0.23750 -0.88687
vt 0.23750 -0.87313
vt 0.66250 -0.87313
vt 0.66250 -0.88687
f 277/821 278/822 279/823 280/824
vt 0.23750 -1.05125
vt 0.23750 -1.03875
vt 0.66250 -1.03875
vt 0.66250 -1.05125
f 273/825 277/826 280/827 276/828
vt 0.23750 -1.05125
vt 0.66250 -1.05125
vt 0.66250 -1.03875
vt 0.23750 -1.03875
f 274/829 275/830 279/831 278/832
vt -0.88687 -1.05125
vt -0.88687 -1.03875
vt -0.87313 -1.03875
vt -0.87313 -1.05125
f 276/833 280/834 279/835 275/836
vt -0.88687 -1.05125
vt -0.87313 -1.05125
vt -0.87313 -1.03875
vt -0.88687 -1.03875
f 273/837 274/838 278/839 277/840
vt 0.23750 -0.87313
vt 0.66250 -0.87313
vt 0.66250 -0.88687
vt 0.23750 -0.88687
f 281/841 284/842 283/843 282/844
vt 0.23750 -0.87313
vt 0.23750 -0.88687
vt 0.66250 -0.88687
vt 0.66250 -0.87313
f 285/845 286/846 287/847 288/848
vt 0.23750 1.05125
vt 0.23750 1.03875
vt 0.66250 1.03875
vt 0.66250 1.05125
f 281/849 285/850 288/851 284/852
vt 0.23750 1.05125
vt 0.66250 1.05125
vt 0.66250 1.03875
vt 0.23750 1.03875
f 282/853 283/854 287/855 286/856
vt -0.87313 1.05125
vt -0.87313 1.03875
vt -0.88687 1.03875
vt -0.88687 1.05125
f 284/857 288/858 287/859 283/860
vt -0.87313 1.05125
vt -0.88687 1.05125
vt -0.88687 1.03875
vt -0.87313 1.03875
f 281/861 282/862 286/863 285/864
vt 0.23750 0.87313
vt 0.66250 0.87313
vt 0.66250 0.88687
vt 0.23750 0.88687
f 289/865 292/866 291/867 290/868
vt 0.23750 0.87313
vt 0.23750 0.88687
vt 0.66250 0.88687
vt 0.66250 0.87313
f 293/869 294/870 295/871 296/872
vt 0.23750 -1.05125
vt 0.23750 -1.03875
vt 0.66250 -1.03875
vt 0.66250 -1.05125
f 289/873 293/874 296/875 292/876
vt 0.23750 -1.05125
vt 0.66250 -1.05125
vt 0.66250 -1.03875
vt 0.23750 -1.03875
f 290/877 291/878 295/879 294/880
vt 0.87313 -1.05125
vt 0.87313 -1.03875
vt 0.88687 -1.03875
vt 0.88687 -1.05125
f 292/881 296/882 295/883 291/884
vt 0.87313 -1.05125
vt 0.88687 -1.05125
vt 0.88687 -1.03875
vt 0.87313 -1.03875
f 289/885 290/886 294/887 293/888
vt 0.23750 0.88687
vt 0.66250 0.88687
vt 0.66250 0.87313
vt 0.23750 0.87313
f 297/889 300/890 299/891 298/892
vt 0.23750 0.88687
vt 0.23750 0.87313
vt 0.66250 0.87313
vt 0.66250 0.88687
f 301/893 302/894 303/895 304/896
vt 0.23750 1.05125
vt 0.23750 1.03875
vt 0.66250 1.03875
vt 0.66250 1.05125
f 297/897 301/898 304/899 300/900
vt 0.23750 1.05125
vt 0.66250 1.05125
vt 0.66250 1.03875
vt 0.23750 1.03875
f 298/901 299/902 303/903 302/904
vt 0.88687 1.05125
vt 0.88687 1.03875
vt 0.87313 1.03875
vt 0.87313 1.05125
f 300/905 304/906 303/907 299/908
vt 0.88687 1.05125
vt 0.87313 1.05125
vt 0.87313 1.03875
vt 0.88687 1.03875
f 297/909 298/910 302/911 301/912
vt 0.23750 -0.53313
vt 0.66250 -0.53313
vt 0.66250 -0.54688
vt 0.23750 -0.54688
f 305/913 308/914 307/915 306/916
vt 0.23750 -0.53313
vt 0.23750 -0.54688
vt 0.66250 -0.54688
vt 0.66250 -0.53313
f 309/917 310/918 311/919 312/920
vt 0.23750 -1.42625
vt 0.23750 -1.41375
vt 0.66250 -1.41375
vt 0.66250 -1.42625
f 305/921 309/922 312/923 308/924
vt 0.23750 -1.42625
vt 0.66250 -1.42625
vt 0.66250 -1.41375
vt 0.23750 -1.41375
f 306/925 307/926 311/927 310/928
vt -0.53313 -1.42625
vt -0.53313 -1.41375
vt -0.54688 -1.41375
vt -0.54688 -1.42625
f 308/929 312/930 311/931 307/932
vt -0.53313 -1.42625
vt -0.54688 -1.42625
vt -0.54688 -1.41375
vt -0.53313 -1.41375
f 305/933 306/934 310/935 309/936
vt 0.23750 0.54688
vt 0.66250 0.54688
vt 0.66250 0.53313
vt 0.23750 0.53313
f 313/937 316/938 315/939 314/940
vt 0.23750 0.54688
vt 0.23750 0.53313
vt 0.66250 0.53313
vt 0.66250 0.54688
f 317/941 318/942 319/943 320/944
vt 0.23750 -1.42625
vt 0.23750 -1.41375
vt 0.66250 -1.41375
vt 0.66250 -1.42625
f 313/945 317/946 320/947 316/948
vt 0.23750 -1.42625
vt 0.66250 -1.42625
vt 0.66250 -1.41375
vt 0.23750 -1.41375
f 314/949 315/950 319/951 318/952
vt 0.54688 -1.42625
vt 0.54688 -1.41375
vt 0.53313 -1.41375
vt 0.53313 -1.42625
f 316/953 320/954 319/955 315/956
vt 0.54688 -1.42625
vt 0.53313 -1.42625
vt 0.53313 -1.41375
vt 0.54688 -1.41375
f 313/957 314/958 318/959 317/960
vt 0.23750 -0.54688
vt 0.66250 -0.54688
vt 0.66250 -0.53313
vt 0.23750 -0.53313
f 321/961 324/962 323/963 322/964
vt 0.23750 -0.54688
vt 0.23750 -0.53313
vt 0.66250 -0.53313
vt 0.66250 -0.54688
f 325/965 326/966 327/967 328/968
vt 0.23750 1.42625
vt 0.23750 1.41375
vt 0.66250 1.41375
vt 0.66250 1.42625
f 321/969 325/970 328/971 324/972
vt 0.23750 1.42625
vt 0.66250 1.42625
vt 0.66250 1.41375
vt 0.23750 1.41375
f 322/973 323/974 327/975 326/976
vt -0.54688 1.42625
vt -0.54688 1.41375
vt -0.53313 1.41375
vt -0.53313 1.42625
f 324/977 328/978 327/979 323/980
vt -0.54688 1.42625
vt -0.53313 1.42625
vt -0.53313 1.41375
vt -0.54688 1.41375
f 321/981 322/982 326/983 325/984
vt 0.23750 0.53313
vt 0.66250 0.53313
vt 0.66250 0.54688
vt 0.23750 0.54688
f 329/985 332/986 331/987 330/988
vt 0.23750 0.53313
vt 0.23750 0.54688
vt 0.66250 0.54688
vt 0.66250 0.53313
f 333/989 334/990 335/991 336/992
vt 0.23750 1.42625
vt 0.23750 1.41375
vt 0.66250 1.41375
vt 0.66250 1.42625
f 329/993 333/994 336/995 332/996
vt 0.23750 1.42625
vt 0.66250 1.42625
vt 0.66250 1.41375
vt 0.23750 1.41375
f 330/997 331/998 335/999 334/1000
vt 0.53313 1.42625
vt 0.53313 1.41375
vt 0.54688 1.41375
vt 0.54688 1.42625
f 332/1001 336/1002 335/1003 331/1004
vt 0.53313 1.42625
vt 0.54688 1.42625
vt 0.54688 1.41375
vt 0.53313 1.41375
f 329/1005 330/1006 334/1007 333/1008
vt 0.00000 -0.00688
vt 0.62500 -0.00688
vt 0.62500 0.00688
vt 0.00000 0.00688
f 337/1009 340/1010 339/1011 338/1012
vt 0.00000 -0.00688
vt 0.00000 0.00688
vt 0.62500 0.00688
vt 0.62500 -0.00688
f 341/1013 342/1014 343/1015 344/1016
vt 0.00000 -1.07625
vt 0.00000 -1.06375
vt 0.62500 -1.06375
vt 0.62500 -1.07625
f 337/1017 341/1018 344/1019 340/1020
vt 0.00000 -1.07625
vt 0.62500 -1.07625
vt 0.62500 -1.06375
vt 0.00000 -1.06375
f 338/1021 339/1022 343/1023 342/1024
vt -0.00688 -1.07625
vt -0.00688 -1.06375
vt 0.00688 -1.06375
vt 0.00688 -1.07625
f 340/1025 344/1026 343/1027 339/1028
vt -0.00688 -1.07625
vt 0.00688 -1.07625
vt 0.00688 -1.06375
vt -0.00688 -1.06375
f 337/1029 338/1030 342/1031 341/1032
vt -0.32500 0.69750
vt -0.32500 0.72750
vt 0.32500 0.72750
vt 0.32500 0.69750
f 345/1033 348/1034 347/1035 346/1036
vt -0.32500 0.69750
vt 0.32500 0.69750
vt 0.32500 0.72750
vt -0.32500 0.72750
f 349/1037 350/1038 351/1039 352/1040
vt -1.36250 0.69750
vt -0.98750 0.69750
vt -0.98750 0.72750
vt -1.36250 0.72750
f 345/1041 349/1042 352/1043 348/1044
vt -1.36250 0.69750
vt -1.36250 0.72750
vt -0.98750 0.72750
vt -0.98750 0.69750
f 346/1045 347/1046 351/1047 350/1048
vt -0.32500 -1.36250
vt -0.32500 -0.98750
vt 0.32500 -0.98750
vt 0.32500 -1.36250
f 348/1049 352/1050 351/1051 347/1052
vt -0.32500 -1.36250
vt 0.32500 -1.36250
vt 0.32500 -0.98750
vt -0.32500 -0.98750
f 345/1053 346/1054 350/1055 349/1056
vt 0.00000 -1.35437
vt 0.77500 -1.35437
vt 0.77500 -1.33563
vt 0.00000 -1.33563
f 353/1057 356/1058 355/1059 354/1060
vt 0.00000 -1.35437
vt 0.00000 -1.33563
vt 0.77500 -1.33563
vt 0.77500 -1.35437
f 357/1061 358/1062 359/1063 360/1064
vt 0.00000 -1.03937
vt 0.00000 -1.02063
vt 0.77500 -1.02063
vt 0.77500 -1.03937
f 353/1065 357/1066 360/1067 356/1068
vt 0.00000 -1.03937
vt 0.77500 -1.03937
vt 0.77500 -1.02063
vt 0.00000 -1.02063
f 354/1069 355/1070 359/1071 358/1072
vt -1.35437 -1.03937
vt -1.35437 -1.02063
vt -1.33563 -1.02063
vt -1.33563 -1.03937
f 356/1073 360/1074 359/1075 355/1076
vt -1.35437 -1.03937
vt -1.33563 -1.03937
vt -1.33563 -1.02063
vt -1.35437 -1.02063
f 353/1077 354/1078 358/1079 357/1080
vt 0.00000 1.33563
vt 0.77500 1.33563
vt 0.77500 1.35437
vt 0.00000 1.35437
f 361/1081 364/1082 363/1083 362/1084
vt 0.00000 1.33563
vt 0.00000 1.35437
vt 0.77500 1.35437
vt 0.77500 1.33563
f 365/1085 366/1086 367/1087 368/1088
vt 0.00000 -1.03937
vt 0.00000 -1.02063
vt 0.77500 -1.02063
vt 0.77500 -1.03937
f 361/1089 365/1090 368/1091 364/1092
vt 0.00000 -1.03937
vt 0.77500 -1.03937
vt 0.77500 -1.02063
vt 0.00000 -1.02063
f 362/1093 363/1094 367/1095 366/1096
vt 1.33563 -1.03937
vt 1.33563 -1.02063
vt 1.35437 -1.02063
vt 1.35437 -1.03937
f 364/1097 368/1098 367/1099 363/1100
vt 1.33563 -1.03937
vt 1.35437 -1.03937
vt 1.35437 -1.02063
vt 1.33563 -1.02063
f 361/1101 362/1102 366/1103 365/1104
vt 0.27500 0.81875
vt 0.27500 1.03125
vt 0.82500 1.03125
vt 0.82500 0.81875
f 369/1105 372/1106 371/1107 370/1108
vt 0.27500 0.81875
vt 0.82500 0.81875
vt 0.82500 1.03125
vt 0.27500 1.03125
f 373/1109 374/1110 375/1111 376/1112
vt -0.22500 0.81875
vt 0.22500 0.81875
vt 0.22500 1.03125
vt -0.22500 1.03125
f 369/1113 373/1114 376/1115 372/1116
vt -0.22500 0.81875
vt -0.22500 1.03125
vt 0.22500 1.03125
vt 0.22500 0.81875
f 370/1117 371/1118 375/1119 374/1120
vt 0.27500 -0.22500
vt 0.27500 0.22500
vt 0.82500 0.22500
vt 0.82500 -0.22500
f 372/1121 376/1122 375/1123 371/1124
vt 0.27500 -0.22500
vt 0.82500 -0.22500
vt 0.82500 0.22500
vt 0.27500 0.22500
f 369/1125 370/1126 374/1127 373/1128
o Roof
usemtl Roof
v -5.62500 3.10000 -4.12500
v 5.62500 3.10000 -4.12500
v 5.62500 3.30000 -4.12500
v -5.62500 3.30000 -4.12500
v -5.62500 3.10000 4.12500
v 5.62500 3.10000 4.12500
v 5.62500 3.30000 4.12500
v -5.62500 3.30000 4.12500
vt -1.40625 0.77500
vt -1.40625 0.82500
vt 1.40625 0.82500
vt 1.40625 0.77500
f 377/1129 380/1130 379/1131 378/1132
vt -1.40625 0.77500
vt 1.40625 0.77500
vt 1.40625 0.82500
vt -1.40625 0.82500
f 381/1133 382/1134 383/1135 384/1136
vt -1.03125 0.77500
vt 1.03125 0.77500
vt 1.03125 0.82500
vt -1.03125 0.82500
f 377/1137 381/1138 384/1139 380/1140
vt -1.03125 0.77500
vt -1.03125 0.82500
vt 1.03125 0.82500
vt 1.03125 0.77500
f 378/1141 379/1142 383/1143 382/1144
vt -1.40625 -1.03125
vt -1.40625 1.03125
vt 1.40625 1.03125
vt 1.40625 -1.03125
f 380/1145 384/1146 383/1147 379/1148
vt -1.40625 -1.03125
vt 1.40625 -1.03125
vt 1.40625 1.03125
vt -1.40625 1.03125
f 377/1149 378/1150 382/1151 381/1152
o Wood
usemtl Wood
v -3.69000 0.00000 -5.56000
v -3.57000 0.00000 -5.56000
v -3.57000 2.70000 -5.56000
v -3.69000 2.70000 -5.56000
v -3.69000 0.00000 -5.44000
v -3.57000 0.00000 -5.44000
v -3.57000 2.70000 -5.44000
v -3.69000 2.70000 -5.44000
v 3.57000 0.00000 -5.56000
v 3.69000 0.00000 -5.56000
v 3.69000 2.70000 -5.56000
v 3.57000 2.70000 -5.56000
v 3.57000 0.00000 -5.44000
v 3.69000 0.00000 -5.44000
v 3.69000 2.70000 -5.44000
v 3.57000 2.70000 -5.44000
v -4.40000 2.69000 -6.00000
v 4.40000 2.69000 -6.00000
v 4.40000 2.81000 -6.00000
v -4.40000 2.81000 -6.00000
v -4.40000 2.69000 -4.00000
v 4.40000 2.69000 -4.00000
v 4.40000 2.81000 -4.00000
v -4.40000 2.81000 -4.00000
vt 0.00000 -0.92250
vt 0.67500 -0.92250
vt 0.67500 -0.89250
vt 0.00000 -0.89250
f 385/1153 388/1154 387/1155 386/1156
vt 0.00000 -0.92250
vt 0.00000 -0.89250
vt 0.67500 -0.89250
vt 0.67500 -0.92250
f 389/1157 390/1158 391/1159 392/1160
vt 0.00000 -1.39000
vt 0.00000 -1.36000
vt 0.67500 -1.36000
vt 0.67500 -1.39000
f 385/1161 389/1162 392/1163 388/1164
vt 0.00000 -1.39000
vt 0.67500 -1.39000
vt 0.67500 -1.36000
vt 0.00000 -1.36000
f 386/1165 387/1166 391/1167 390/1168
vt -0.92250 -1.39000
vt -0.92250 -1.36000
vt -0.89250 -1.36000
vt -0.89250 -1.39000
f 388/1169 392/1170 391/1171 387/1172
vt -0.92250 -1.39000
vt -0.89250 -1.39000
vt -0.89250 -1.36000
vt -0.92250 -1.36000
f 385/1173 386/1174 390/1175 389/1176
vt 0.00000 0.89250
vt 0.67500 0.89250
vt 0.67500 0.92250
vt 0.00000 0.92250
f 393/1177 396/1178 395/1179 394/1180
vt 0.00000 0.89250
vt 0.00000 0.92250
vt 0.67500 0.92250
vt 0.67500 0.89250
f 397/1181 398/1182 399/1183 400/1184
vt 0.00000 -1.39000
vt 0.00000 -1.36000
vt 0.67500 -1.36000
vt 0.67500 -1.39000
f 393/1185 397/1186 400/1187 396/1188
vt 0.00000 -1.39000
vt 0.67500 -1.39000
vt 0.67500 -1.36000
vt 0.00000 -1.36000
f 394/1189 395/1190 399/1191 398/1192
vt 0.89250 -1.39000
vt 0.89250 -1.36000
vt 0.92250 -1.36000
vt 0.92250 -1.39000
f 396/1193 400/1194 399/1195 395/1196
vt 0.89250 -1.39000
vt 0.92250 -1.39000
vt 0.92250 -1.36000
vt 0.89250 -1.36000
f 393/1197 394/1198 398/1199 397/1200
vt -1.10000 0.67250
vt -1.10000 0.70250
vt 1.10000 0.70250
vt 1.10000 0.67250
f 401/1201 404/1202 403/1203 402/1204
vt -1.10000 0.67250
vt 1.10000 0.67250
vt 1.10000 0.70250
vt -1.10000 0.70250
f 405/1205 406/1206 407/1207 408/1208
vt -1.50000 0.67250
vt -1.00000 0.67250
vt -1.00000 0.70250
vt -1.50000 0.70250
f 401/1209 405/1210 408/1211 404/1212
vt -1.50000 0.67250
vt -1.50000 0.70250
vt -1.00000 0.70250
vt -1.00000 0.67250
f 402/1213 403/1214 407/1215 406/1216
vt -1.10000 -1.50000
vt -1.10000 -1.00000
vt 1.10000 -1.00000
vt 1.10000 -1.50000
f 404/1217 408/1218 407/1219 403/1220
vt -1.10000 -1.50000
vt 1.10000 -1.50000
vt 1.10000 -1.00000
vt -1.10000 -1.00000
f 401/1221 402/1222 406/1223 405/1224
