mtllib CityPalette.mtl
o White
usemtl White
v -6.00000 0.00000 -4.50000
v 6.00000 0.00000 -4.50000
v 6.00000 3.10000 -4.50000
v -6.00000 3.10000 -4.50000
v -6.00000 0.00000 4.50000
v 6.00000 0.00000 4.50000
v 6.00000 3.10000 4.50000
v -6.00000 3.10000 4.50000
v -6.00000 3.10000 -4.50000
v 6.00000 3.10000 -4.50000
v 6.00000 3.25876 -4.50000
v -6.00000 3.25876 -4.50000
v -6.00000 3.10000 4.50000
v 6.00000 3.10000 4.50000
v 6.00000 3.25876 4.50000
v -6.00000 3.25876 4.50000
v -6.00000 3.25876 -4.50000
v -6.00000 3.25876 4.50000
v -6.00000 5.30000 0.00000
v -5.82000 3.25876 -4.50000
v -5.82000 3.25876 4.50000
v -5.82000 5.30000 0.00000
v 5.82000 3.25876 -4.50000
v 5.82000 3.25876 4.50000
v 5.82000 5.30000 0.00000
v 6.00000 3.25876 -4.50000
v 6.00000 3.25876 4.50000
v 6.00000 5.30000 0.00000
vt -1.50000 0.00000
vt -1.50000 0.77500
vt 1.50000 0.77500
vt 1.50000 0.00000
f 1/1 4/2 3/3 2/4
vt -1.50000 0.00000
vt 1.50000 0.00000
vt 1.50000 0.77500
vt -1.50000 0.77500
f 5/5 6/6 7/7 8/8
vt -1.12500 0.00000
vt 1.12500 0.00000
vt 1.12500 0.77500
vt -1.12500 0.77500
f 1/9 5/10 8/11 4/12
vt -1.12500 0.00000
vt -1.12500 0.77500
vt 1.12500 0.77500
vt 1.12500 0.00000
f 2/13 3/14 7/15 6/16
vt -1.50000 -1.12500
vt -1.50000 1.12500
vt 1.50000 1.12500
vt 1.50000 -1.12500
f 4/17 8/18 7/19 3/20
vt -1.50000 -1.12500
vt 1.50000 -1.12500
vt 1.50000 1.12500
vt -1.50000 1.12500
f 1/21 2/22 6/23 5/24
vt -1.50000 0.77500
vt -1.50000 0.81469
vt 1.50000 0.81469
vt 1.50000 0.77500
f 9/25 12/26 11/27 10/28
vt -1.50000 0.77500
vt 1.50000 0.77500
vt 1.50000 0.81469
vt -1.50000 0.81469
f 13/29 14/30 15/31 16/32
vt -1.12500 0.77500
vt 1.12500 0.77500
vt 1.12500 0.81469
vt -1.12500 0.81469
f 9/33 13/34 16/35 12/36
vt -1.12500 0.77500
vt -1.12500 0.81469
vt 1.12500 0.81469
vt 1.12500 0.77500
f 10/37 11/38 15/39 14/40
vt -1.50000 -1.12500
vt -1.50000 1.12500
vt 1.50000 1.12500
vt 1.50000 -1.12500
f 12/41 16/42 15/43 11/44
vt -1.50000 -1.12500
vt 1.50000 -1.12500
vt 1.50000 1.12500
vt -1.50000 1.12500
f 9/45 10/46 14/47 13/48
vt -1.12500 0.81469
vt 1.12500 0.81469
vt 0.00000 1.32500
f 17/49 18/50 19/51
vt -1.12500 0.81469
vt 0.00000 1.32500
vt 1.12500 0.81469
f 20/52 22/53 21/54
vt -1.12500 -1.50000
vt -1.12500 -1.45500
vt 1.12500 -1.45500
vt 1.12500 -1.50000
f 17/55 20/56 21/57 18/58
vt 1.12500 0.81469
vt 1.12500 0.81469
vt 0.00000 1.32500
vt 0.00000 1.32500
f 18/59 21/60 22/61 19/62
vt 0.00000 1.32500
vt 0.00000 1.32500
vt -1.12500 0.81469
vt -1.12500 0.81469
f 19/63 22/64 20/65 17/66
vt -1.12500 0.81469
vt 1.12500 0.81469
vt 0.00000 1.32500
f 23/67 24/68 25/69
vt -1.12500 0.81469
vt 0.00000 1.32500
vt 1.12500 0.81469
f 26/70 28/71 27/72
vt -1.12500 1.45500
vt -1.12500 1.50000
vt 1.12500 1.50000
vt 1.12500 1.45500
f 23/73 26/74 27/75 24/76
vt 1.12500 0.81469
vt 1.12500 0.81469
vt 0.00000 1.32500
vt 0.00000 1.32500
f 24/77 27/78 28/79 25/80
vt 0.00000 1.32500
vt 0.00000 1.32500
vt -1.12500 0.81469
vt -1.12500 0.81469
f 25/81 28/82 26/83 23/84
o Base
usemtl Base
v -6.07000 0.00000 -4.57000
v 6.07000 0.00000 -4.57000
v 6.07000 0.46000 -4.57000
v -6.07000 0.46000 -4.57000
v -6.07000 0.00000 4.57000
v 6.07000 0.00000 4.57000
v 6.07000 0.46000 4.57000
v -6.07000 0.46000 4.57000
v -4.80000 0.00000 -6.50000
v 4.80000 0.00000 -6.50000
v 4.80000 0.18000 -6.50000
v -4.80000 0.18000 -6.50000
v -4.80000 0.00000 -4.50000
v 4.80000 0.00000 -4.50000
v 4.80000 0.18000 -4.50000
v -4.80000 0.18000 -4.50000
vt -1.51750 0.00000
vt -1.51750 0.11500
vt 1.51750 0.11500
vt 1.51750 0.00000
f 29/85 32/86 31/87 30/88
vt -1.51750 0.00000
vt 1.51750 0.00000
vt 1.51750 0.11500
vt -1.51750 0.11500
f 33/89 34/90 35/91 36/92
vt -1.14250 0.00000
vt 1.14250 0.00000
vt 1.14250 0.11500
vt -1.14250 0.11500
f 29/93 33/94 36/95 32/96
vt -1.14250 0.00000
vt -1.14250 0.11500
vt 1.14250 0.11500
vt 1.14250 0.00000
f 30/97 31/98 35/99 34/100
vt -1.51750 -1.14250
vt -1.51750 1.14250
vt 1.51750 1.14250
vt 1.51750 -1.14250
f 32/101 36/102 35/103 31/104
vt -1.51750 -1.14250
vt 1.51750 -1.14250
vt 1.51750 1.14250
vt -1.51750 1.14250
f 29/105 30/106 34/107 33/108
vt -1.20000 0.00000
vt -1.20000 0.04500
vt 1.20000 0.04500
vt 1.20000 0.00000
f 37/109 40/110 39/111 38/112
vt -1.20000 0.00000
vt 1.20000 0.00000
vt 1.20000 0.04500
vt -1.20000 0.04500
f 41/113 42/114 43/115 44/116
vt -1.62500 0.00000
vt -1.12500 0.00000
vt -1.12500 0.04500
vt -1.62500 0.04500
f 37/117 41/118 44/119 40/120
vt -1.62500 0.00000
vt -1.62500 0.04500
vt -1.12500 0.04500
vt -1.12500 0.00000
f 38/121 39/122 43/123 42/124
vt -1.20000 -1.62500
vt -1.20000 -1.12500
vt 1.20000 -1.12500
vt 1.20000 -1.62500
f 40/125 44/126 43/127 39/128
vt -1.20000 -1.62500
vt 1.20000 -1.62500
vt 1.20000 -1.12500
vt -1.20000 -1.12500
f 37/129 38/130 42/131 41/132
o Trim
usemtl Trim
v -4.65000 0.84000 -4.63000
v -3.03000 0.84000 -4.63000
v -3.03000 2.76000 -4.63000
v -4.65000 2.76000 -4.63000
v -4.65000 0.84000 -4.43000
v -3.03000 0.84000 -4.43000
v -3.03000 2.76000 -4.43000
v -4.65000 2.76000 -4.43000
v -4.71500 0.81000 -4.88000
v -2.96500 0.81000 -4.88000
v -2.96500 0.91000 -4.88000
v -4.71500 0.91000 -4.88000
v -4.71500 0.81000 -4.48000
v -2.96500 0.81000 -4.48000
v -2.96500 0.91000 -4.48000
v -4.71500 0.91000 -4.48000
v -3.03000 0.84000 4.63000
v -4.65000 0.84000 4.63000
v -4.65000 2.76000 4.63000
v -3.03000 2.76000 4.63000
v -3.03000 0.84000 4.43000
v -4.65000 0.84000 4.43000
v -4.65000 2.76000 4.43000
v -3.03000 2.76000 4.43000
v -2.96500 0.81000 4.88000
v -4.71500 0.81000 4.88000
v -4.71500 0.91000 4.88000
v -2.96500 0.91000 4.88000
v -2.96500 0.81000 4.48000
v -4.71500 0.81000 4.48000
v -4.71500 0.91000 4.48000
v -2.96500 0.91000 4.48000
v 3.03000 0.84000 -4.63000
v 4.65000 0.84000 -4.63000
v 4.65000 2.76000 -4.63000
v 3.03000 2.76000 -4.63000
v 3.03000 0.84000 -4.43000
v 4.65000 0.84000 -4.43000
v 4.65000 2.76000 -4.43000
v 3.03000 2.76000 -4.43000
v 2.96500 0.81000 -4.88000
v 4.71500 0.81000 -4.88000
v 4.71500 0.91000 -4.88000
v 2.96500 0.91000 -4.88000
v 2.96500 0.81000 -4.48000
v 4.71500 0.81000 -4.48000
v 4.71500 0.91000 -4.48000
v 2.96500 0.91000 -4.48000
v 4.65000 0.84000 4.63000
v 3.03000 0.84000 4.63000
v 3.03000 2.76000 4.63000
v 4.65000 2.76000 4.63000
v 4.65000 0.84000 4.43000
v 3.03000 0.84000 4.43000
v 3.03000 2.76000 4.43000
v 4.65000 2.76000 4.43000
v 4.71500 0.81000 4.88000
v 2.96500 0.81000 4.88000
v 2.96500 0.91000 4.88000
v 4.71500 0.91000 4.88000
v 4.71500 0.81000 4.48000
v 2.96500 0.81000 4.48000
v 2.96500 0.91000 4.48000
v 4.71500 0.91000 4.48000
v -6.13000 0.84000 -1.62000
v -6.13000 0.84000 -3.24000
v -6.13000 2.76000 -3.24000
v -6.13000 2.76000 -1.62000
v -5.93000 0.84000 -1.62000
v -5.93000 0.84000 -3.24000
v -5.93000 2.76000 -3.24000
v -5.93000 2.76000 -1.62000
v -6.38000 0.81000 -1.55500
v -6.38000 0.81000 -3.30500
v -6.38000 0.91000 -3.30500
v -6.38000 0.91000 -1.55500
v -5.98000 0.81000 -1.55500
v -5.98000 0.81000 -3.30500
v -5.98000 0.91000 -3.30500
v -5.98000 0.91000 -1.55500
v -6.13000 0.84000 3.24000
v -6.13000 0.84000 1.62000
v -6.13000 2.76000 1.62000
v -6.13000 2.76000 3.24000
v -5.93000 0.84000 3.24000
v -5.93000 0.84000 1.62000
v -5.93000 2.76000 1.62000
v -5.93000 2.76000 3.24000
v -6.38000 0.81000 3.30500
v -6.38000 0.81000 1.55500
v -6.38000 0.91000 1.55500
v -6.38000 0.91000 3.30500
v -5.98000 0.81000 3.30500
v -5.98000 0.81000 1.55500
v -5.98000 0.91000 1.55500
v -5.98000 0.91000 3.30500
v 6.13000 0.84000 -3.24000
v 6.13000 0.84000 -1.62000
v 6.13000 2.76000 -1.62000
v 6.13000 2.76000 -3.24000
v 5.93000 0.84000 -3.24000
v 5.93000 0.84000 -1.62000
v 5.93000 2.76000 -1.62000
v 5.93000 2.76000 -3.24000
v 6.38000 0.81000 -3.30500
v 6.38000 0.81000 -1.55500
v 6.38000 0.91000 -1.55500
v 6.38000 0.91000 -3.30500
v 5.98000 0.81000 -3.30500
v 5.98000 0.81000 -1.55500
v 5.98000 0.91000 -1.55500
v 5.98000 0.91000 -3.30500
v 6.13000 0.84000 1.62000
v 6.13000 0.84000 3.24000
v 6.13000 2.76000 3.24000
v 6.13000 2.76000 1.62000
v 5.93000 0.84000 1.62000
v 5.93000 0.84000 3.24000
v 5.93000 2.76000 3.24000
v 5.93000 2.76000 1.62000
v 6.38000 0.81000 1.55500
v 6.38000 0.81000 3.30500
v 6.38000 0.91000 3.30500
v 6.38000 0.91000 1.55500
v 5.98000 0.81000 1.55500
v 5.98000 0.81000 3.30500
v 5.98000 0.91000 3.30500
v 5.98000 0.91000 1.55500
v -0.85000 0.00000 -4.71500
v 0.85000 0.00000 -4.71500
v 0.85000 2.70000 -4.71500
v -0.85000 2.70000 -4.71500
v -0.85000 0.00000 -4.46500
v 0.85000 0.00000 -4.46500
v 0.85000 2.70000 -4.46500
v -0.85000 2.70000 -4.46500
v 0.33250 1.00000 -4.86500
v 0.36750 1.00000 -4.86500
v 0.36750 1.40000 -4.86500
v 0.33250 1.40000 -4.86500
v 0.33250 1.00000 -4.81500
v 0.36750 1.00000 -4.81500
v 0.36750 1.40000 -4.81500
v 0.33250 1.40000 -4.81500
vt 0.21000 -1.16250
vt 0.69000 -1.16250
vt 0.69000 -0.75750
vt 0.21000 -0.75750
f 45/133 48/134 47/135 46/136
vt 0.21000 -1.16250
vt 0.21000 -0.75750
vt 0.69000 -0.75750
vt 0.69000 -1.16250
f 49/137 50/138 51/139 52/140
vt 0.21000 -1.15750
vt 0.21000 -1.10750
vt 0.69000 -1.10750
vt 0.69000 -1.15750
f 45/141 49/142 52/143 48/144
vt 0.21000 -1.15750
vt 0.69000 -1.15750
vt 0.69000 -1.10750
vt 0.21000 -1.10750
f 46/145 47/146 51/147 50/148
vt -1.16250 -1.15750
vt -1.16250 -1.10750
vt -0.75750 -1.10750
vt -0.75750 -1.15750
f 48/149 52/150 51/151 47/152
vt -1.16250 -1.15750
vt -0.75750 -1.15750
vt -0.75750 -1.10750
vt -1.16250 -1.10750
f 45/153 46/154 50/155 49/156
vt -1.17875 0.20250
vt -1.17875 0.22750
vt -0.74125 0.22750
vt -0.74125 0.20250
f 53/157 56/158 55/159 54/160
vt -1.17875 0.20250
vt -0.74125 0.20250
vt -0.74125 0.22750
vt -1.17875 0.22750
f 57/161 58/162 59/163 60/164
vt -1.22000 0.20250
vt -1.12000 0.20250
vt -1.12000 0.22750
vt -1.22000 0.22750
f 53/165 57/166 60/167 56/168
vt -1.22000 0.20250
vt -1.22000 0.22750
vt -1.12000 0.22750
vt -1.12000 0.20250
f 54/169 55/170 59/171 58/172
vt -1.17875 -1.22000
vt -1.17875 -1.12000
vt -0.74125 -1.12000
vt -0.74125 -1.22000
f 56/173 60/174 59/175 55/176
vt -1.17875 -1.22000
vt -0.74125 -1.22000
vt -0.74125 -1.12000
vt -1.17875 -1.12000
f 53/177 54/178 58/179 57/180
vt 0.21000 -0.75750
vt 0.69000 -0.75750
vt 0.69000 -1.16250
vt 0.21000 -1.16250
f 61/181 64/182 63/183 62/184
vt 0.21000 -0.75750
vt 0.21000 -1.16250
vt 0.69000 -1.16250
vt 0.69000 -0.75750
f 65/185 66/186 67/187 68/188
vt 0.21000 1.15750
vt 0.21000 1.10750
vt 0.69000 1.10750
vt 0.69000 1.15750
f 61/189 65/190 68/191 64/192
vt 0.21000 1.15750
vt 0.69000 1.15750
vt 0.69000 1.10750
vt 0.21000 1.10750
f 62/193 63/194 67/195 66/196
vt -0.75750 1.15750
vt -0.75750 1.10750
vt -1.16250 1.10750
vt -1.16250 1.15750
f 64/197 68/198 67/199 63/200
vt -0.75750 1.15750
vt -1.16250 1.15750
vt -1.16250 1.10750
vt -0.75750 1.10750
f 61/201 62/202 66/203 65/204
vt -0.74125 0.20250
vt -0.74125 0.22750
vt -1.17875 0.22750
vt -1.17875 0.20250
f 69/205 72/206 71/207 70/208
vt -0.74125 0.20250
vt -1.17875 0.20250
vt -1.17875 0.22750
vt -0.74125 0.22750
f 73/209 74/210 75/211 76/212
vt 1.22000 0.20250
vt 1.12000 0.20250
vt 1.12000 0.22750
vt 1.22000 0.22750
f 69/213 73/214 76/215 72/216
vt 1.22000 0.20250
vt 1.22000 0.22750
vt 1.12000 0.22750
vt 1.12000 0.20250
f 70/217 71/218 75/219 74/220
vt -0.74125 1.22000
vt -0.74125 1.12000
vt -1.17875 1.12000
vt -1.17875 1.22000
f 72/221 76/222 75/223 71/224
vt -0.74125 1.22000
vt -1.17875 1.22000
vt -1.17875 1.12000
vt -0.74125 1.12000
f 69/225 70/226 74/227 73/228
vt 0.21000 0.75750
vt 0.69000 0.75750
vt 0.69000 1.16250
vt 0.21000 1.16250
f 77/229 80/230 79/231 78/232
vt 0.21000 0.75750
vt 0.21000 1.16250
vt 0.69000 1.16250
vt 0.69000 0.75750
f 81/233 82/234 83/235 84/236
vt 0.21000 -1.15750
vt 0.21000 -1.10750
vt 0.69000 -1.10750
vt 0.69000 -1.15750
f 77/237 81/238 84/239 80/240
vt 0.21000 -1.15750
vt 0.69000 -1.15750
vt 0.69000 -1.10750
vt 0.21000 -1.10750
f 78/241 79/242 83/243 82/244
vt 0.75750 -1.15750
vt 0.75750 -1.10750
vt 1.16250 -1.10750
vt 1.16250 -1.15750
f 80/245 84/246 83/247 79/248
vt 0.75750 -1.15750
vt 1.16250 -1.15750
vt 1.16250 -1.10750
vt 0.75750 -1.10750
f 77/249 78/250 82/251 81/252
vt 0.74125 0.20250
vt 0.74125 0.22750
vt 1.17875 0.22750
vt 1.17875 0.20250
f 85/253 88/254 87/255 86/256
vt 0.74125 0.20250
vt 1.17875 0.20250
vt 1.17875 0.22750
vt 0.74125 0.22750
f 89/257 90/258 91/259 92/260
vt -1.22000 0.20250
vt -1.12000 0.20250
vt -1.12000 0.22750
vt -1.22000 0.22750
f 85/261 89/262 92/263 88/264
vt -1.22000 0.20250
vt -1.22000 0.22750
vt -1.12000 0.22750
vt -1.12000 0.20250
f 86/265 87/266 91/267 90/268
vt 0.74125 -1.22000
vt 0.74125 -1.12000
vt 1.17875 -1.12000
vt 1.17875 -1.22000
f 88/269 92/270 91/271 87/272
vt 0.74125 -1.22000
vt 1.17875 -1.22000
vt 1.17875 -1.12000
vt 0.74125 -1.12000
f 85/273 86/274 90/275 89/276
vt 0.21000 1.16250
vt 0.69000 1.16250
vt 0.69000 0.75750
vt 0.21000 0.75750
f 93/277 96/278 95/279 94/280
vt 0.21000 1.16250
vt 0.21000 0.75750
vt 0.69000 0.75750
vt 0.69000 1.16250
f 97/281 98/282 99/283 100/284
vt 0.21000 1.15750
vt 0.21000 1.10750
vt 0.69000 1.10750
vt 0.69000 1.15750
f 93/285 97/286 100/287 96/288
vt 0.21000 1.15750
vt 0.69000 1.15750
vt 0.69000 1.10750
vt 0.21000 1.10750
f 94/289 95/290 99/291 98/292
vt 1.16250 1.15750
vt 1.16250 1.10750
vt 0.75750 1.10750
vt 0.75750 1.15750
f 96/293 100/294 99/295 95/296
vt 1.16250 1.15750
vt 0.75750 1.15750
vt 0.75750 1.10750
vt 1.16250 1.10750
f 93/297 94/298 98/299 97/300
vt 1.17875 0.20250
vt 1.17875 0.22750
vt 0.74125 0.22750
vt 0.74125 0.20250
f 101/301 104/302 103/303 102/304
vt 1.17875 0.20250
vt 0.74125 0.20250
vt 0.74125 0.22750
vt 1.17875 0.22750
f 105/305 106/306 107/307 108/308
vt 1.22000 0.20250
vt 1.12000 0.20250
vt 1.12000 0.22750
vt 1.22000 0.22750
f 101/309 105/310 108/311 104/312
vt 1.22000 0.20250
vt 1.22000 0.22750
vt 1.12000 0.22750
vt 1.12000 0.20250
f 102/313 103/314 107/315 106/316
vt 1.17875 1.22000
vt 1.17875 1.12000
vt 0.74125 1.12000
vt 0.74125 1.22000
f 104/317 108/318 107/319 103/320
vt 1.17875 1.22000
vt 0.74125 1.22000
vt 0.74125 1.12000
vt 1.17875 1.12000
f 101/321 102/322 106/323 105/324
vt 0.21000 -0.40500
vt 0.69000 -0.40500
vt 0.69000 -0.81000
vt 0.21000 -0.81000
f 109/325 112/326 111/327 110/328
vt 0.21000 -0.40500
vt 0.21000 -0.81000
vt 0.69000 -0.81000
vt 0.69000 -0.40500
f 113/329 114/330 115/331 116/332
vt 0.21000 -1.53250
vt 0.21000 -1.48250
vt 0.69000 -1.48250
vt 0.69000 -1.53250
f 109/333 113/334 116/335 112/336
vt 0.21000 -1.53250
vt 0.69000 -1.53250
vt 0.69000 -1.48250
vt 0.21000 -1.48250
f 110/337 111/338 115/339 114/340
vt -0.40500 -1.53250
vt -0.40500 -1.48250
vt -0.81000 -1.48250
vt -0.81000 -1.53250
f 112/341 116/342 115/343 111/344
vt -0.40500 -1.53250
vt -0.81000 -1.53250
vt -0.81000 -1.48250
vt -0.40500 -1.48250
f 109/345 110/346 114/347 113/348
vt -0.38875 0.20250
vt -0.38875 0.22750
vt -0.82625 0.22750
vt -0.82625 0.20250
f 117/349 120/350 119/351 118/352
vt -0.38875 0.20250
vt -0.82625 0.20250
vt -0.82625 0.22750
vt -0.38875 0.22750
f 121/353 122/354 123/355 124/356
vt -1.59500 0.20250
vt -1.49500 0.20250
vt -1.49500 0.22750
vt -1.59500 0.22750
f 117/357 121/358 124/359 120/360
vt -1.59500 0.20250
vt -1.59500 0.22750
vt -1.49500 0.22750
vt -1.49500 0.20250
f 118/361 119/362 123/363 122/364
vt -0.38875 -1.59500
vt -0.38875 -1.49500
vt -0.82625 -1.49500
vt -0.82625 -1.59500
f 120/365 124/366 123/367 119/368
vt -0.38875 -1.59500
vt -0.82625 -1.59500
vt -0.82625 -1.49500
vt -0.38875 -1.49500
f 117/369 118/370 122/371 121/372
vt 0.21000 0.81000
vt 0.69000 0.81000
vt 0.69000 0.40500
vt 0.21000 0.40500
f 125/373 128/374 127/375 126/376
vt 0.21000 0.81000
vt 0.21000 0.40500
vt 0.69000 0.40500
vt 0.69000 0.81000
f 129/377 130/378 131/379 132/380
vt 0.21000 -1.53250
vt 0.21000 -1.48250
vt 0.69000 -1.48250
vt 0.69000 -1.53250
f 125/381 129/382 132/383 128/384
vt 0.21000 -1.53250
vt 0.69000 -1.53250
vt 0.69000 -1.48250
vt 0.21000 -1.48250
f 126/385 127/386 131/387 130/388
vt 0.81000 -1.53250
vt 0.81000 -1.48250
vt 0.40500 -1.48250
vt 0.40500 -1.53250
f 128/389 132/390 131/391 127/392
vt 0.81000 -1.53250
vt 0.40500 -1.53250
vt 0.40500 -1.48250
vt 0.81000 -1.48250
f 125/393 126/394 130/395 129/396
vt 0.82625 0.20250
vt 0.82625 0.22750
vt 0.38875 0.22750
vt 0.38875 0.20250
f 133/397 136/398 135/399 134/400
vt 0.82625 0.20250
vt 0.38875 0.20250
vt 0.38875 0.22750
vt 0.82625 0.22750
f 137/401 138/402 139/403 140/404
vt -1.59500 0.20250
vt -1.49500 0.20250
vt -1.49500 0.22750
vt -1.59500 0.22750
f 133/405 137/406 140/407 136/408
vt -1.59500 0.20250
vt -1.59500 0.22750
vt -1.49500 0.22750
vt -1.49500 0.20250
f 134/409 135/410 139/411 138/412
vt 0.82625 -1.59500
vt 0.82625 -1.49500
vt 0.38875 -1.49500
vt 0.38875 -1.59500
f 136/413 140/414 139/415 135/416
vt 0.82625 -1.59500
vt 0.38875 -1.59500
vt 0.38875 -1.49500
vt 0.82625 -1.49500
f 133/417 134/418 138/419 137/420
vt 0.21000 -0.81000
vt 0.69000 -0.81000
vt 0.69000 -0.40500
vt 0.21000 -0.40500
f 141/421 144/422 143/423 142/424
vt 0.21000 -0.81000
vt 0.21000 -0.40500
vt 0.69000 -0.40500
vt 0.69000 -0.81000
f 145/425 146/426 147/427 148/428
vt 0.21000 1.53250
vt 0.21000 1.48250
vt 0.69000 1.48250
vt 0.69000 1.53250
f 141/429 145/430 148/431 144/432
vt 0.21000 1.53250
vt 0.69000 1.53250
vt 0.69000 1.48250
vt 0.21000 1.48250
f 142/433 143/434 147/435 146/436
vt -0.81000 1.53250
vt -0.81000 1.48250
vt -0.40500 1.48250
vt -0.40500 1.53250
f 144/437 148/438 147/439 143/440
vt -0.81000 1.53250
vt -0.40500 1.53250
vt -0.40500 1.48250
vt -0.81000 1.48250
f 141/441 142/442 146/443 145/444
vt -0.82625 0.20250
vt -0.82625 0.22750
vt -0.38875 0.22750
vt -0.38875 0.20250
f 149/445 152/446 151/447 150/448
vt -0.82625 0.20250
vt -0.38875 0.20250
vt -0.38875 0.22750
vt -0.82625 0.22750
f 153/449 154/450 155/451 156/452
vt 1.59500 0.20250
vt 1.49500 0.20250
vt 1.49500 0.22750
vt 1.59500 0.22750
f 149/453 153/454 156/455 152/456
vt 1.59500 0.20250
vt 1.59500 0.22750
vt 1.49500 0.22750
vt 1.49500 0.20250
f 150/457 151/458 155/459 154/460
vt -0.82625 1.59500
vt -0.82625 1.49500
vt -0.38875 1.49500
vt -0.38875 1.59500
f 152/461 156/462 155/463 151/464
vt -0.82625 1.59500
vt -0.38875 1.59500
vt -0.38875 1.49500
vt -0.82625 1.49500
f 149/465 150/466 154/467 153/468
vt 0.21000 0.40500
vt 0.69000 0.40500
vt 0.69000 0.81000
vt 0.21000 0.81000
f 157/469 160/470 159/471 158/472
vt 0.21000 0.40500
vt 0.21000 0.81000
vt 0.69000 0.81000
vt 0.69000 0.40500
f 161/473 162/474 163/475 164/476
vt 0.21000 1.53250
vt 0.21000 1.48250
vt 0.69000 1.48250
vt 0.69000 1.53250
f 157/477 161/478 164/479 160/480
vt 0.21000 1.53250
vt 0.69000 1.53250
vt 0.69000 1.48250
vt 0.21000 1.48250
f 158/481 159/482 163/483 162/484
vt 0.40500 1.53250
vt 0.40500 1.48250
vt 0.81000 1.48250
vt 0.81000 1.53250
f 160/485 164/486 163/487 159/488
vt 0.40500 1.53250
vt 0.81000 1.53250
vt 0.81000 1.48250
vt 0.40500 1.48250
f 157/489 158/490 162/491 161/492
vt 0.38875 0.20250
vt 0.38875 0.22750
vt 0.82625 0.22750
vt 0.82625 0.20250
f 165/493 168/494 167/495 166/496
vt 0.38875 0.20250
vt 0.82625 0.20250
vt 0.82625 0.22750
vt 0.38875 0.22750
f 169/497 170/498 171/499 172/500
vt 1.59500 0.20250
vt 1.49500 0.20250
vt 1.49500 0.22750
vt 1.59500 0.22750
f 165/501 169/502 172/503 168/504
vt 1.59500 0.20250
vt 1.59500 0.22750
vt 1.49500 0.22750
vt 1.49500 0.20250
f 166/505 167/506 171/507 170/508
vt 0.38875 1.59500
vt 0.38875 1.49500
vt 0.82625 1.49500
vt 0.82625 1.59500
f 168/509 172/510 171/511 167/512
vt 0.38875 1.59500
vt 0.82625 1.59500
vt 0.82625 1.49500
vt 0.38875 1.49500
f 165/513 166/514 170/515 169/516
vt 0.00000 -0.21250
vt 0.67500 -0.21250
vt 0.67500 0.21250
vt 0.00000 0.21250
f 173/517 176/518 175/519 174/520
vt 0.00000 -0.21250
vt 0.00000 0.21250
vt 0.67500 0.21250
vt 0.67500 -0.21250
f 177/521 178/522 179/523 180/524
vt 0.00000 -1.17875
vt 0.00000 -1.11625
vt 0.67500 -1.11625
vt 0.67500 -1.17875
f 173/525 177/526 180/527 176/528
vt 0.00000 -1.17875
vt 0.67500 -1.17875
vt 0.67500 -1.11625
vt 0.00000 -1.11625
f 174/529 175/530 179/531 178/532
vt -0.21250 -1.17875
vt -0.21250 -1.11625
vt 0.21250 -1.11625
vt 0.21250 -1.17875
f 176/533 180/534 179/535 175/536
vt -0.21250 -1.17875
vt 0.21250 -1.17875
vt 0.21250 -1.11625
vt -0.21250 -1.11625
f 173/537 174/538 178/539 177/540
vt 0.25000 0.08312
vt 0.35000 0.08312
vt 0.35000 0.09187
vt 0.25000 0.09187
f 181/541 184/542 183/543 182/544
vt 0.25000 0.08312
vt 0.25000 0.09187
vt 0.35000 0.09187
vt 0.35000 0.08312
f 185/545 186/546 187/547 188/548
vt 0.25000 -1.21625
vt 0.25000 -1.20375
vt 0.35000 -1.20375
vt 0.35000 -1.21625
f 181/549 185/550 188/551 184/552
vt 0.25000 -1.21625
vt 0.35000 -1.21625
vt 0.35000 -1.20375
vt 0.25000 -1.20375
f 182/553 183/554 187/555 186/556
vt -1.21625 0.08312
vt -1.20375 0.08312
vt -1.20375 0.09187
vt -1.21625 0.09187
f 184/557 188/558 187/559 183/560
vt -1.21625 0.08312
vt -1.21625 0.09187
vt -1.20375 0.09187
vt -1.20375 0.08312
f 181/561 182/562 186/563 185/564
o Glass
usemtl Glass
v -4.54000 0.95000 -4.66500
v -3.14000 0.95000 -4.66500
v -3.14000 2.65000 -4.66500
v -4.54000 2.65000 -4.66500
v -4.54000 0.95000 -4.62500
v -3.14000 0.95000 -4.62500
v -3.14000 2.65000 -4.62500
v -4.54000 2.65000 -4.62500
v -3.14000 0.95000 4.66500
v -4.54000 0.95000 4.66500
v -4.54000 2.65000 4.66500
v -3.14000 2.65000 4.66500
v -3.14000 0.95000 4.62500
v -4.54000 0.95000 4.62500
v -4.54000 2.65000 4.62500
v -3.14000 2.65000 4.62500
v 3.14000 0.95000 -4.66500
v 4.54000 0.95000 -4.66500
v 4.54000 2.65000 -4.66500
v 3.14000 2.65000 -4.66500
v 3.14000 0.95000 -4.62500
v 4.54000 0.95000 -4.62500
v 4.54000 2.65000 -4.62500
v 3.14000 2.65000 -4.62500
v 4.54000 0.95000 4.66500
v 3.14000 0.95000 4.66500
v 3.14000 2.65000 4.66500
v 4.54000 2.65000 4.66500
v 4.54000 0.95000 4.62500
v 3.14000 0.95000 4.62500
v 3.14000 2.65000 4.62500
v 4.54000 2.65000 4.62500
v -6.16500 0.95000 -1.73000
v -6.16500 0.95000 -3.13000
v -6.16500 2.65000 -3.13000
v -6.16500 2.65000 -1.73000
v -6.12500 0.95000 -1.73000
v -6.12500 0.95000 -3.13000
v -6.12500 2.65000 -3.13000
v -6.12500 2.65000 -1.73000
v -6.16500 0.95000 3.13000
v -6.16500 0.95000 1.73000
v -6.16500 2.65000 1.73000
v -6.16500 2.65000 3.13000
v -6.12500 0.95000 3.13000
v -6.12500 0.95000 1.73000
v -6.12500 2.65000 1.73000
v -6.12500 2.65000 3.13000
v 6.16500 0.95000 -3.13000
v 6.16500 0.95000 -1.73000
v 6.16500 2.65000 -1.73000
v 6.16500 2.65000 -3.13000
v 6.12500 0.95000 -3.13000
v 6.12500 0.95000 -1.73000
v 6.12500 2.65000 -1.73000
v 6.12500 2.65000 -3.13000
v 6.16500 0.95000 1.73000
v 6.16500 0.95000 3.13000
v 6.16500 2.65000 3.13000
v 6.16500 2.65000 1.73000
v 6.12500 0.95000 1.73000
v 6.12500 0.95000 3.13000
v 6.12500 2.65000 3.13000
v 6.12500 2.65000 1.73000
v -0.70000 0.00000 -4.76000
v 0.70000 0.00000 -4.76000
v 0.70000 2.50000 -4.76000
v -0.70000 2.50000 -4.76000
v -0.70000 0.00000 -4.70000
v 0.70000 0.00000 -4.70000
v 0.70000 2.50000 -4.70000
v -0.70000 2.50000 -4.70000
vt 0.23750 -1.13500
vt 0.66250 -1.13500
vt 0.66250 -0.78500
vt 0.23750 -0.78500
f 189/565 192/566 191/567 190/568
vt 0.23750 -1.13500
vt 0.23750 -0.78500
vt 0.66250 -0.78500
vt 0.66250 -1.13500
f 193/569 194/570 195/571 196/572
vt 0.23750 -1.16625
vt 0.23750 -1.15625
vt 0.66250 -1.15625
vt 0.66250 -1.16625
f 189/573 193/574 196/575 192/576
vt 0.23750 -1.16625
vt 0.66250 -1.16625
vt 0.66250 -1.15625
vt 0.23750 -1.15625
f 190/577 191/578 195/579 194/580
vt -1.13500 -1.16625
vt -1.13500 -1.15625
vt -0.78500 -1.15625
vt -0.78500 -1.16625
f 192/581 196/582 195/583 191/584
vt -1.13500 -1.16625
vt -0.78500 -1.16625
vt -0.78500 -1.15625
vt -1.13500 -1.15625
f 189/585 190/586 194/587 193/588
vt 0.23750 -0.78500
vt 0.66250 -0.78500
vt 0.66250 -1.13500
vt 0.23750 -1.13500
f 197/589 200/590 199/591 198/592
vt 0.23750 -0.78500
vt 0.23750 -1.13500
vt 0.66250 -1.13500
vt 0.66250 -0.78500
f 201/593 202/594 203/595 204/596
vt 0.23750 1.16625
vt 0.23750 1.15625
vt 0.66250 1.15625
vt 0.66250 1.16625
f 197/597 201/598 204/599 200/600
vt 0.23750 1.16625
vt 0.66250 1.16625
vt 0.66250 1.15625
vt 0.23750 1.15625
f 198/601 199/602 203/603 202/604
vt -0.78500 1.16625
vt -0.78500 1.15625
vt -1.13500 1.15625
vt -1.13500 1.16625
f 200/605 204/606 203/607 199/608
vt -0.78500 1.16625
vt -1.13500 1.16625
vt -1.13500 1.15625
vt -0.78500 1.15625
f 197/609 198/610 202/611 201/612
vt 0.23750 0.78500
vt 0.66250 0.78500
vt 0.66250 1.13500
vt 0.23750 1.13500
f 205/613 208/614 207/615 206/616
vt 0.23750 0.78500
vt 0.23750 1.13500
vt 0.66250 1.13500
vt 0.66250 0.78500
f 209/617 210/618 211/619 212/620
vt 0.23750 -1.16625
vt 0.23750 -1.15625
vt 0.66250 -1.15625
vt 0.66250 -1.16625
f 205/621 209/622 212/623 208/624
vt 0.23750 -1.16625
vt 0.66250 -1.16625
vt 0.66250 -1.15625
vt 0.23750 -1.15625
f 206/625 207/626 211/627 210/628
vt 0.78500 -1.16625
vt 0.78500 -1.15625
vt 1.13500 -1.15625
vt 1.13500 -1.16625
f 208/629 212/630 211/631 207/632
vt 0.78500 -1.16625
vt 1.13500 -1.16625
vt 1.13500 -1.15625
vt 0.78500 -1.15625
f 205/633 206/634 210/635 209/636
vt 0.23750 1.13500
vt 0.66250 1.13500
vt 0.66250 0.78500
vt 0.23750 0.78500
f 213/637 216/638 215/639 214/640
vt 0.23750 1.13500
vt 0.23750 0.78500
vt 0.66250 0.78500
vt 0.66250 1.13500
f 217/641 218/642 219/643 220/644
vt 0.23750 1.16625
vt 0.23750 1.15625
vt 0.66250 1.15625
vt 0.66250 1.16625
f 213/645 217/646 220/647 216/648
vt 0.23750 1.16625
vt 0.66250 1.16625
vt 0.66250 1.15625
vt 0.23750 1.15625
f 214/649 215/650 219/651 218/652
vt 1.13500 1.16625
vt 1.13500 1.15625
vt 0.78500 1.15625
vt 0.78500 1.16625
f 216/653 220/654 219/655 215/656
vt 1.13500 1.16625
vt 0.78500 1.16625
vt 0.78500 1.15625
vt 1.13500 1.15625
f 213/657 214/658 218/659 217/660
vt 0.23750 -0.43250
vt 0.66250 -0.43250
vt 0.66250 -0.78250
vt 0.23750 -0.78250
f 221/661 224/662 223/663 222/664
vt 0.23750 -0.43250
vt 0.23750 -0.78250
vt 0.66250 -0.78250
vt 0.66250 -0.43250
f 225/665 226/666 227/667 228/668
vt 0.23750 -1.54125
vt 0.23750 -1.53125
vt 0.66250 -1.53125
vt 0.66250 -1.54125
f 221/669 225/670 228/671 224/672
vt 0.23750 -1.54125
vt 0.66250 -1.54125
vt 0.66250 -1.53125
vt 0.23750 -1.53125
f 222/673 223/674 227/675 226/676
vt -0.43250 -1.54125
vt -0.43250 -1.53125
vt -0.78250 -1.53125
vt -0.78250 -1.54125
f 224/677 228/678 227/679 223/680
vt -0.43250 -1.54125
vt -0.78250 -1.54125
vt -0.78250 -1.53125
vt -0.43250 -1.53125
f 221/681 222/682 226/683 225/684
vt 0.23750 0.78250
vt 0.66250 0.78250
vt 0.66250 0.43250
vt 0.23750 0.43250
f 229/685 232/686 231/687 230/688
vt 0.23750 0.78250
vt 0.23750 0.43250
vt 0.66250 0.43250
vt 0.66250 0.78250
f 233/689 234/690 235/691 236/692
vt 0.23750 -1.54125
vt 0.23750 -1.53125
vt 0.66250 -1.53125
vt 0.66250 -1.54125
f 229/693 233/694 236/695 232/696
vt 0.23750 -1.54125
vt 0.66250 -1.54125
vt 0.66250 -1.53125
vt 0.23750 -1.53125
f 230/697 231/698 235/699 234/700
vt 0.78250 -1.54125
vt 0.78250 -1.53125
vt 0.43250 -1.53125
vt 0.43250 -1.54125
f 232/701 236/702 235/703 231/704
vt 0.78250 -1.54125
vt 0.43250 -1.54125
vt 0.43250 -1.53125
vt 0.78250 -1.53125
f 229/705 230/706 234/707 233/708
vt 0.23750 -0.78250
vt 0.66250 -0.78250
vt 0.66250 -0.43250
vt 0.23750 -0.43250
f 237/709 240/710 239/711 238/712
vt 0.23750 -0.78250
vt 0.23750 -0.43250
vt 0.66250 -0.43250
vt 0.66250 -0.78250
f 241/713 242/714 243/715 244/716
vt 0.23750 1.54125
vt 0.23750 1.53125
vt 0.66250 1.53125
vt 0.66250 1.54125
f 237/717 241/718 244/719 240/720
vt 0.23750 1.54125
vt 0.66250 1.54125
vt 0.66250 1.53125
vt 0.23750 1.53125
f 238/721 239/722 243/723 242/724
vt -0.78250 1.54125
vt -0.78250 1.53125
vt -0.43250 1.53125
vt -0.43250 1.54125
f 240/725 244/726 243/727 239/728
vt -0.78250 1.54125
vt -0.43250 1.54125
vt -0.43250 1.53125
vt -0.78250 1.53125
f 237/729 238/730 242/731 241/732
vt 0.23750 0.43250
vt 0.66250 0.43250
vt 0.66250 0.78250
vt 0.23750 0.78250
f 245/733 248/734 247/735 246/736
vt 0.23750 0.43250
vt 0.23750 0.78250
vt 0.66250 0.78250
vt 0.66250 0.43250
f 249/737 250/738 251/739 252/740
vt 0.23750 1.54125
vt 0.23750 1.53125
vt 0.66250 1.53125
vt 0.66250 1.54125
f 245/741 249/742 252/743 248/744
vt 0.23750 1.54125
vt 0.66250 1.54125
vt 0.66250 1.53125
vt 0.23750 1.53125
f 246/745 247/746 251/747 250/748
vt 0.43250 1.54125
vt 0.43250 1.53125
vt 0.78250 1.53125
vt 0.78250 1.54125
f 248/749 252/750 251/751 247/752
vt 0.43250 1.54125
vt 0.78250 1.54125
vt 0.78250 1.53125
vt 0.43250 1.53125
f 245/753 246/754 250/755 249/756
vt 0.00000 -0.17500
vt 0.62500 -0.17500
vt 0.62500 0.17500
vt 0.00000 0.17500
f 253/757 256/758 255/759 254/760
vt 0.00000 -0.17500
vt 0.00000 0.17500
vt 0.62500 0.17500
vt 0.62500 -0.17500
f 257/761 258/762 259/763 260/764
vt 0.00000 -1.19000
vt 0.00000 -1.17500
vt 0.62500 -1.17500
vt 0.62500 -1.19000
f 253/765 257/766 260/767 256/768
vt 0.00000 -1.19000
vt 0.62500 -1.19000
vt 0.62500 -1.17500
vt 0.00000 -1.17500
f 254/769 255/770 259/771 258/772
vt -0.17500 -1.19000
vt -0.17500 -1.17500
vt 0.17500 -1.17500
vt 0.17500 -1.19000
f 256/773 260/774 259/775 255/776
vt -0.17500 -1.19000
vt 0.17500 -1.19000
vt 0.17500 -1.17500
vt -0.17500 -1.17500
f 253/777 254/778 258/779 257/780
o Metal
usemtl Metal
v -3.86750 0.95000 -4.70500
v -3.81250 0.95000 -4.70500
v -3.81250 2.65000 -4.70500
v -3.86750 2.65000 -4.70500
v -3.86750 0.95000 -4.65500
v -3.81250 0.95000 -4.65500
v -3.81250 2.65000 -4.65500
v -3.86750 2.65000 -4.65500
v -3.81250 0.95000 4.70500
v -3.86750 0.95000 4.70500
v -3.86750 2.65000 4.70500
v -3.81250 2.65000 4.70500
v -3.81250 0.95000 4.65500
v -3.86750 0.95000 4.65500
v -3.86750 2.65000 4.65500
v -3.81250 2.65000 4.65500
v 3.81250 0.95000 -4.70500
v 3.86750 0.95000 -4.70500
v 3.86750 2.65000 -4.70500
v 3.81250 2.65000 -4.70500
v 3.81250 0.95000 -4.65500
v 3.86750 0.95000 -4.65500
v 3.86750 2.65000 -4.65500
v 3.81250 2.65000 -4.65500
v 3.86750 0.95000 4.70500
v 3.81250 0.95000 4.70500
v 3.81250 2.65000 4.70500
v 3.86750 2.65000 4.70500
v 3.86750 0.95000 4.65500
v 3.81250 0.95000 4.65500
v 3.81250 2.65000 4.65500
v 3.86750 2.65000 4.65500
v -6.20500 0.95000 -2.40250
v -6.20500 0.95000 -2.45750
v -6.20500 2.65000 -2.45750
v -6.20500 2.65000 -2.40250
v -6.15500 0.95000 -2.40250
v -6.15500 0.95000 -2.45750
v -6.15500 2.65000 -2.45750
v -6.15500 2.65000 -2.40250
v -6.20500 0.95000 2.45750
v -6.20500 0.95000 2.40250
v -6.20500 2.65000 2.40250
v -6.20500 2.65000 2.45750
v -6.15500 0.95000 2.45750
v -6.15500 0.95000 2.40250
v -6.15500 2.65000 2.40250
v -6.15500 2.65000 2.45750
v 6.20500 0.95000 -2.45750
v 6.20500 0.95000 -2.40250
v 6.20500 2.65000 -2.40250
v 6.20500 2.65000 -2.45750
v 6.15500 0.95000 -2.45750
v 6.15500 0.95000 -2.40250
v 6.15500 2.65000 -2.40250
v 6.15500 2.65000 -2.45750
v 6.20500 0.95000 2.40250
v 6.20500 0.95000 2.45750
v 6.20500 2.65000 2.45750
v 6.20500 2.65000 2.40250
v 6.15500 0.95000 2.40250
v 6.15500 0.95000 2.45750
v 6.15500 2.65000 2.45750
v 6.15500 2.65000 2.40250
v -0.02750 0.00000 -4.80500
v 0.02750 0.00000 -4.80500
v 0.02750 2.50000 -4.80500
v -0.02750 2.50000 -4.80500
v -0.02750 0.00000 -4.75500
v 0.02750 0.00000 -4.75500
v 0.02750 2.50000 -4.75500
v -0.02750 2.50000 -4.75500
v -1.30000 2.79000 -5.95000
v 1.30000 2.79000 -5.95000
v 1.30000 2.91000 -5.95000
v -1.30000 2.91000 -5.95000
v -1.30000 2.79000 -4.45000
v 1.30000 2.79000 -4.45000
v 1.30000 2.91000 -4.45000
v -1.30000 2.91000 -4.45000
v -5.91750 0.00000 -4.65750
v -5.84250 0.00000 -4.65750
v -5.84250 3.10000 -4.65750
v -5.91750 3.10000 -4.65750
v -5.91750 0.00000 -4.58250
v -5.84250 0.00000 -4.58250
v -5.84250 3.10000 -4.58250
v -5.91750 3.10000 -4.58250
v 5.84250 0.00000 -4.65750
v 5.91750 0.00000 -4.65750
v 5.91750 3.10000 -4.65750
v 5.84250 3.10000 -4.65750
v 5.84250 0.00000 -4.58250
v 5.91750 0.00000 -4.58250
v 5.91750 3.10000 -4.58250
v 5.84250 3.10000 -4.58250
v -6.01250 3.18862 -4.84484
v -5.98750 3.18862 -4.84484
v -5.98750 3.21138 -4.85516
v -6.01250 3.21138 -4.85516
v -6.01250 5.38862 0.00516
v -5.98750 5.38862 0.00516
v -5.98750 5.41138 -0.00516
v -6.01250 5.41138 -0.00516
v -5.01250 3.18862 -4.84484
v -4.98750 3.18862 -4.84484
v -4.98750 3.21138 -4.85516
v -5.01250 3.21138 -4.85516
v -5.01250 5.38862 0.00516
v -4.98750 5.38862 0.00516
v -4.98750 5.41138 -0.00516
v -5.01250 5.41138 -0.00516
v -4.01250 3.18862 -4.84484
v -3.98750 3.18862 -4.84484
v -3.98750 3.21138 -4.85516
v -4.01250 3.21138 -4.85516
v -4.01250 5.38862 0.00516
v -3.98750 5.38862 0.00516
v -3.98750 5.41138 -0.00516
v -4.01250 5.41138 -0.00516
v -3.01250 3.18862 -4.84484
v -2.98750 3.18862 -4.84484
v -2.98750 3.21138 -4.85516
v -3.01250 3.21138 -4.85516
v -3.01250 5.38862 0.00516
v -2.98750 5.38862 0.00516
v -2.98750 5.41138 -0.00516
v -3.01250 5.41138 -0.00516
v -2.01250 3.18862 -4.84484
v -1.98750 3.18862 -4.84484
v -1.98750 3.21138 -4.85516
v -2.01250 3.21138 -4.85516
v -2.01250 5.38862 0.00516
v -1.98750 5.38862 0.00516
v -1.98750 5.41138 -0.00516
v -2.01250 5.41138 -0.00516
v -1.01250 3.18862 -4.84484
v -0.98750 3.18862 -4.84484
v -0.98750 3.21138 -4.85516
v -1.01250 3.21138 -4.85516
v -1.01250 5.38862 0.00516
v -0.98750 5.38862 0.00516
v -0.98750 5.41138 -0.00516
v -1.01250 5.41138 -0.00516
v -0.01250 3.18862 -4.84484
v 0.01250 3.18862 -4.84484
v 0.01250 3.21138 -4.85516
v -0.01250 3.21138 -4.85516
v -0.01250 5.38862 0.00516
v 0.01250 5.38862 0.00516
v 0.01250 5.41138 -0.00516
v -0.01250 5.41138 -0.00516
v 0.98750 3.18862 -4.84484
v 1.01250 3.18862 -4.84484
v 1.01250 3.21138 -4.85516
v 0.98750 3.21138 -4.85516
v 0.98750 5.38862 0.00516
v 1.01250 5.38862 0.00516
v 1.01250 5.41138 -0.00516
v 0.98750 5.41138 -0.00516
v 1.98750 3.18862 -4.84484
v 2.01250 3.18862 -4.84484
v 2.01250 3.21138 -4.85516
v 1.98750 3.21138 -4.85516
v 1.98750 5.38862 0.00516
v 2.01250 5.38862 0.00516
v 2.01250 5.41138 -0.00516
v 1.98750 5.41138 -0.00516
v 2.98750 3.18862 -4.84484
v 3.01250 3.18862 -4.84484
v 3.01250 3.21138 -4.85516
v 2.98750 3.21138 -4.85516
v 2.98750 5.38862 0.00516
v 3.01250 5.38862 0.00516
v 3.01250 5.41138 -0.00516
v 2.98750 5.41138 -0.00516
v 3.98750 3.18862 -4.84484
v 4.01250 3.18862 -4.84484
v 4.01250 3.21138 -4.85516
v 3.98750 3.21138 -4.85516
v 3.98750 5.38862 0.00516
v 4.01250 5.38862 0.00516
v 4.01250 5.41138 -0.00516
v 3.98750 5.41138 -0.00516
v 4.98750 3.18862 -4.84484
v 5.01250 3.18862 -4.84484
v 5.01250 3.21138 -4.85516
v 4.98750 3.21138 -4.85516
v 4.98750 5.38862 0.00516
v 5.01250 5.38862 0.00516
v 5.01250 5.41138 -0.00516
v 4.98750 5.41138 -0.00516
v 5.98750 3.18862 -4.84484
v 6.01250 3.18862 -4.84484
v 6.01250 3.21138 -4.85516
v 5.98750 3.21138 -4.85516
v 5.98750 5.38862 0.00516
v 6.01250 5.38862 0.00516
v 6.01250 5.41138 -0.00516
v 5.98750 5.41138 -0.00516
v -6.01250 5.38862 -0.00516
v -5.98750 5.38862 -0.00516
v -5.98750 5.41138 0.00516
v -6.01250 5.41138 0.00516
v -6.01250 3.18862 4.84484
v -5.98750 3.18862 4.84484
v -5.98750 3.21138 4.85516
v -6.01250 3.21138 4.85516
v -5.01250 5.38862 -0.00516
v -4.98750 5.38862 -0.00516
v -4.98750 5.41138 0.00516
v -5.01250 5.41138 0.00516
v -5.01250 3.18862 4.84484
v -4.98750 3.18862 4.84484
v -4.98750 3.21138 4.85516
v -5.01250 3.21138 4.85516
v -4.01250 5.38862 -0.00516
v -3.98750 5.38862 -0.00516
v -3.98750 5.41138 0.00516
v -4.01250 5.41138 0.00516
v -4.01250 3.18862 4.84484
v -3.98750 3.18862 4.84484
v -3.98750 3.21138 4.85516
v -4.01250 3.21138 4.85516
v -3.01250 5.38862 -0.00516
v -2.98750 5.38862 -0.00516
v -2.98750 5.41138 0.00516
v -3.01250 5.41138 0.00516
v -3.01250 3.18862 4.84484
v -2.98750 3.18862 4.84484
v -2.98750 3.21138 4.85516
v -3.01250 3.21138 4.85516
v -2.01250 5.38862 -0.00516
v -1.98750 5.38862 -0.00516
v -1.98750 5.41138 0.00516
v -2.01250 5.41138 0.00516
v -2.01250 3.18862 4.84484
v -1.98750 3.18862 4.84484
v -1.98750 3.21138 4.85516
v -2.01250 3.21138 4.85516
v -1.01250 5.38862 -0.00516
v -0.98750 5.38862 -0.00516
v -0.98750 5.41138 0.00516
v -1.01250 5.41138 0.00516
v -1.01250 3.18862 4.84484
v -0.98750 3.18862 4.84484
v -0.98750 3.21138 4.85516
v -1.01250 3.21138 4.85516
v -0.01250 5.38862 -0.00516
v 0.01250 5.38862 -0.00516
v 0.01250 5.41138 0.00516
v -0.01250 5.41138 0.00516
v -0.01250 3.18862 4.84484
v 0.01250 3.18862 4.84484
v 0.01250 3.21138 4.85516
v -0.01250 3.21138 4.85516
v 0.98750 5.38862 -0.00516
v 1.01250 5.38862 -0.00516
v 1.01250 5.41138 0.00516
v 0.98750 5.41138 0.00516
v 0.98750 3.18862 4.84484
v 1.01250 3.18862 4.84484
v 1.01250 3.21138 4.85516
v 0.98750 3.21138 4.85516
v 1.98750 5.38862 -0.00516
v 2.01250 5.38862 -0.00516
v 2.01250 5.41138 0.00516
v 1.98750 5.41138 0.00516
v 1.98750 3.18862 4.84484
v 2.01250 3.18862 4.84484
v 2.01250 3.21138 4.85516
v 1.98750 3.21138 4.85516
v 2.98750 5.38862 -0.00516
v 3.01250 5.38862 -0.00516
v 3.01250 5.41138 0.00516
v 2.98750 5.41138 0.00516
v 2.98750 3.18862 4.84484
v 3.01250 3.18862 4.84484
v 3.01250 3.21138 4.85516
v 2.98750 3.21138 4.85516
v 3.98750 5.38862 -0.00516
v 4.01250 5.38862 -0.00516
v 4.01250 5.41138 0.00516
v 3.98750 5.41138 0.00516
v 3.98750 3.18862 4.84484
v 4.01250 3.18862 4.84484
v 4.01250 3.21138 4.85516
v 3.98750 3.21138 4.85516
v 4.98750 5.38862 -0.00516
v 5.01250 5.38862 -0.00516
v 5.01250 5.41138 0.00516
v 4.98750 5.41138 0.00516
v 4.98750 3.18862 4.84484
v 5.01250 3.18862 4.84484
v 5.01250 3.21138 4.85516
v 4.98750 3.21138 4.85516
v 5.98750 5.38862 -0.00516
v 6.01250 5.38862 -0.00516
v 6.01250 5.41138 0.00516
v 5.98750 5.41138 0.00516
v 5.98750 3.18862 4.84484
v 6.01250 3.18862 4.84484
v 6.01250 3.21138 4.85516
v 5.98750 3.21138 4.85516
vt 0.23750 -0.96687
vt 0.66250 -0.96687
vt 0.66250 -0.95312
vt 0.23750 -0.95312
f 261/781 264/782 263/783 262/784
vt 0.23750 -0.96687
vt 0.23750 -0.95312
vt 0.66250 -0.95312
vt 0.66250 -0.96687
f 265/785 266/786 267/787 268/788
vt 0.23750 -1.17625
vt 0.23750 -1.16375
vt 0.66250 -1.16375
vt 0.66250 -1.17625
f 261/789 265/790 268/791 264/792
vt 0.23750 -1.17625
vt 0.66250 -1.17625
vt 0.66250 -1.16375
vt 0.23750 -1.16375
f 262/793 263/794 267/795 266/796
vt -0.96687 -1.17625
vt -0.96687 -1.16375
vt -0.95312 -1.16375
vt -0.95312 -1.17625
f 264/797 268/798 267/799 263/800
vt -0.96687 -1.17625
vt -0.95312 -1.17625
vt -0.95312 -1.16375
vt -0.96687 -1.16375
f 261/801 262/802 266/803 265/804
vt 0.23750 -0.95312
vt 0.66250 -0.95312
vt 0.66250 -0.96687
vt 0.23750 -0.96687
f 269/805 272/806 271/807 270/808
vt 0.23750 -0.95312
vt 0.23750 -0.96687
vt 0.66250 -0.96687
vt 0.66250 -0.95312
f 273/809 274/810 275/811 276/812
vt 0.23750 1.17625
vt 0.23750 1.16375
vt 0.66250 1.16375
vt 0.66250 1.17625
f 269/813 273/814 276/815 272/816
vt 0.23750 1.17625
vt 0.66250 1.17625
vt 0.66250 1.16375
vt 0.23750 1.16375
f 270/817 271/818 275/819 274/820
vt -0.95312 1.17625
vt -0.95312 1.16375
vt -0.96687 1.16375
vt -0.96687 1.17625
f 272/821 276/822 275/823 271/824
vt -0.95312 1.17625
vt -0.96687 1.17625
vt -0.96687 1.16375
vt -0.95312 1.16375
f 269/825 270/826 274/827 273/828
vt 0.23750 0.95312
vt 0.66250 0.95312
vt 0.66250 0.96687
vt 0.23750 0.96687
f 277/829 280/830 279/831 278/832
vt 0.23750 0.95312
vt 0.23750 0.96687
vt 0.66250 0.96687
vt 0.66250 0.95312
f 281/833 282/834 283/835 284/836
vt 0.23750 -1.17625
vt 0.23750 -1.16375
vt 0.66250 -1.16375
vt 0.66250 -1.17625
f 277/837 281/838 284/839 280/840
vt 0.23750 -1.17625
vt 0.66250 -1.17625
vt 0.66250 -1.16375
vt 0.23750 -1.16375
f 278/841 279/842 283/843 282/844
vt 0.95312 -1.17625
vt 0.95312 -1.16375
vt 0.96687 -1.16375
vt 0.96687 -1.17625
f 280/845 284/846 283/847 279/848
vt 0.95312 -1.17625
vt 0.96687 -1.17625
vt 0.96687 -1.16375
vt 0.95312 -1.16375
f 277/849 278/850 282/851 281/852
vt 0.23750 0.96687
vt 0.66250 0.96687
vt 0.66250 0.95312
vt 0.23750 0.95312
f 285/853 288/854 287/855 286/856
vt 0.23750 0.96687
vt 0.23750 0.95312
vt 0.66250 0.95312
vt 0.66250 0.96687
f 289/857 290/858 291/859 292/860
vt 0.23750 1.17625
vt 0.23750 1.16375
vt 0.66250 1.16375
vt 0.66250 1.17625
f 285/861 289/862 292/863 288/864
vt 0.23750 1.17625
vt 0.66250 1.17625
vt 0.66250 1.16375
vt 0.23750 1.16375
f 286/865 287/866 291/867 290/868
vt 0.96687 1.17625
vt 0.96687 1.16375
vt 0.95312 1.16375
vt 0.95312 1.17625
f 288/869 292/870 291/871 287/872
vt 0.96687 1.17625
vt 0.95312 1.17625
vt 0.95312 1.16375
vt 0.96687 1.16375
f 285/873 286/874 290/875 289/876
vt 0.23750 -0.60063
vt 0.66250 -0.60063
vt 0.66250 -0.61438
vt 0.23750 -0.61438
f 293/877 296/878 295/879 294/880
vt 0.23750 -0.60063
vt 0.23750 -0.61438
vt 0.66250 -0.61438
vt 0.66250 -0.60063
f 297/881 298/882 299/883 300/884
vt 0.23750 -1.55125
vt 0.23750 -1.53875
vt 0.66250 -1.53875
vt 0.66250 -1.55125
f 293/885 297/886 300/887 296/888
vt 0.23750 -1.55125
vt 0.66250 -1.55125
vt 0.66250 -1.53875
vt 0.23750 -1.53875
f 294/889 295/890 299/891 298/892
vt -0.60063 -1.55125
vt -0.60063 -1.53875
vt -0.61438 -1.53875
vt -0.61438 -1.55125
f 296/893 300/894 299/895 295/896
vt -0.60063 -1.55125
vt -0.61438 -1.55125
vt -0.61438 -1.53875
vt -0.60063 -1.53875
f 293/897 294/898 298/899 297/900
vt 0.23750 0.61438
vt 0.66250 0.61438
vt 0.66250 0.60063
vt 0.23750 0.60063
f 301/901 304/902 303/903 302/904
vt 0.23750 0.61438
vt 0.23750 0.60063
vt 0.66250 0.60063
vt 0.66250 0.61438
f 305/905 306/906 307/907 308/908
vt 0.23750 -1.55125
vt 0.23750 -1.53875
vt 0.66250 -1.53875
vt 0.66250 -1.55125
f 301/909 305/910 308/911 304/912
vt 0.23750 -1.55125
vt 0.66250 -1.55125
vt 0.66250 -1.53875
vt 0.23750 -1.53875
f 302/913 303/914 307/915 306/916
vt 0.61438 -1.55125
vt 0.61438 -1.53875
vt 0.60063 -1.53875
vt 0.60063 -1.55125
f 304/917 308/918 307/919 303/920
vt 0.61438 -1.55125
vt 0.60063 -1.55125
vt 0.60063 -1.53875
vt 0.61438 -1.53875
f 301/921 302/922 306/923 305/924
vt 0.23750 -0.61438
vt 0.66250 -0.61438
vt 0.66250 -0.60063
vt 0.23750 -0.60063
f 309/925 312/926 311/927 310/928
vt 0.23750 -0.61438
vt 0.23750 -0.60063
vt 0.66250 -0.60063
vt 0.66250 -0.61438
f 313/929 314/930 315/931 316/932
vt 0.23750 1.55125
vt 0.23750 1.53875
vt 0.66250 1.53875
vt 0.66250 1.55125
f 309/933 313/934 316/935 312/936
vt 0.23750 1.55125
vt 0.66250 1.55125
vt 0.66250 1.53875
vt 0.23750 1.53875
f 310/937 311/938 315/939 314/940
vt -0.61438 1.55125
vt -0.61438 1.53875
vt -0.60063 1.53875
vt -0.60063 1.55125
f 312/941 316/942 315/943 311/944
vt -0.61438 1.55125
vt -0.60063 1.55125
vt -0.60063 1.53875
vt -0.61438 1.53875
f 309/945 310/946 314/947 313/948
vt 0.23750 0.60063
vt 0.66250 0.60063
vt 0.66250 0.61438
vt 0.23750 0.61438
f 317/949 320/950 319/951 318/952
vt 0.23750 0.60063
vt 0.23750 0.61438
vt 0.66250 0.61438
vt 0.66250 0.60063
f 321/953 322/954 323/955 324/956
vt 0.23750 1.55125
vt 0.23750 1.53875
vt 0.66250 1.53875
vt 0.66250 1.55125
f 317/957 321/958 324/959 320/960
vt 0.23750 1.55125
vt 0.66250 1.55125
vt 0.66250 1.53875
vt 0.23750 1.53875
f 318/961 319/962 323/963 322/964
vt 0.60063 1.55125
vt 0.60063 1.53875
vt 0.61438 1.53875
vt 0.61438 1.55125
f 320/965 324/966 323/967 319/968
vt 0.60063 1.55125
vt 0.61438 1.55125
vt 0.61438 1.53875
vt 0.60063 1.53875
f 317/969 318/970 322/971 321/972
vt 0.00000 -0.00688
vt 0.62500 -0.00688
vt 0.62500 0.00688
vt 0.00000 0.00688
f 325/973 328/974 327/975 326/976
vt 0.00000 -0.00688
vt 0.00000 0.00688
vt 0.62500 0.00688
vt 0.62500 -0.00688
f 329/977 330/978 331/979 332/980
vt 0.00000 -1.20125
vt 0.00000 -1.18875
vt 0.62500 -1.18875
vt 0.62500 -1.20125
f 325/981 329/982 332/983 328/984
vt 0.00000 -1.20125
vt 0.62500 -1.20125
vt 0.62500 -1.18875
vt 0.00000 -1.18875
f 326/985 327/986 331/987 330/988
vt -0.00688 -1.20125
vt -0.00688 -1.18875
vt 0.00688 -1.18875
vt 0.00688 -1.20125
f 328/989 332/990 331/991 327/992
vt -0.00688 -1.20125
vt 0.00688 -1.20125
vt 0.00688 -1.18875
vt -0.00688 -1.18875
f 325/993 326/994 330/995 329/996
vt -0.32500 0.69750
vt -0.32500 0.72750
vt 0.32500 0.72750
vt 0.32500 0.69750
f 333/997 336/998 335/999 334/1000
vt -0.32500 0.69750
vt 0.32500 0.69750
vt 0.32500 0.72750
vt -0.32500 0.72750
f 337/1001 338/1002 339/1003 340/1004
vt -1.48750 0.69750
vt -1.11250 0.69750
vt -1.11250 0.72750
vt -1.48750 0.72750
f 333/1005 337/1006 340/1007 336/1008
vt -1.48750 0.69750
vt -1.48750 0.72750
vt -1.11250 0.72750
vt -1.11250 0.69750
f 334/1009 335/1010 339/1011 338/1012
vt -0.32500 -1.48750
vt -0.32500 -1.11250
vt 0.32500 -1.11250
vt 0.32500 -1.48750
f 336/1013 340/1014 339/1015 335/1016
vt -0.32500 -1.48750
vt 0.32500 -1.48750
vt 0.32500 -1.11250
vt -0.32500 -1.11250
f 333/1017 334/1018 338/1019 337/1020
vt 0.00000 -1.47937
vt 0.77500 -1.47937
vt 0.77500 -1.46063
vt 0.00000 -1.46063
f 341/1021 344/1022 343/1023 342/1024
vt 0.00000 -1.47937
vt 0.00000 -1.46063
vt 0.77500 -1.46063
vt 0.77500 -1.47937
f 345/1025 346/1026 347/1027 348/1028
vt 0.00000 -1.16437
vt 0.00000 -1.14563
vt 0.77500 -1.14563
vt 0.77500 -1.16437
f 341/1029 345/1030 348/1031 344/1032
vt 0.00000 -1.16437
vt 0.77500 -1.16437
vt 0.77500 -1.14563
vt 0.00000 -1.14563
f 342/1033 343/1034 347/1035 346/1036
vt -1.47937 -1.16437
vt -1.47937 -1.14563
vt -1.46063 -1.14563
vt -1.46063 -1.16437
f 344/1037 348/1038 347/1039 343/1040
vt -1.47937 -1.16437
vt -1.46063 -1.16437
vt -1.46063 -1.14563
vt -1.47937 -1.14563
f 341/1041 342/1042 346/1043 345/1044
vt 0.00000 1.46063
vt 0.77500 1.46063
vt 0.77500 1.47937
vt 0.00000 1.47937
f 349/1045 352/1046 351/1047 350/1048
vt 0.00000 1.46063
vt 0.00000 1.47937
vt 0.77500 1.47937
vt 0.77500 1.46063
f 353/1049 354/1050 355/1051 356/1052
vt 0.00000 -1.16437
vt 0.00000 -1.14563
vt 0.77500 -1.14563
vt 0.77500 -1.16437
f 349/1053 353/1054 356/1055 352/1056
vt 0.00000 -1.16437
vt 0.77500 -1.16437
vt 0.77500 -1.14563
vt 0.00000 -1.14563
f 350/1057 351/1058 355/1059 354/1060
vt 1.46063 -1.16437
vt 1.46063 -1.14563
vt 1.47937 -1.14563
vt 1.47937 -1.16437
f 352/1061 356/1062 355/1063 351/1064
vt 1.46063 -1.16437
vt 1.47937 -1.16437
vt 1.47937 -1.14563
vt 1.46063 -1.14563
f 349/1065 350/1066 354/1067 353/1068
vt -1.50313 0.79715
vt -1.50313 0.80285
vt -1.49687 0.80285
vt -1.49687 0.79715
f 357/1069 360/1070 359/1071 358/1072
vt -1.50313 1.34715
vt -1.49687 1.34715
vt -1.49687 1.35285
vt -1.50313 1.35285
f 361/1073 362/1074 363/1075 364/1076
vt -1.21121 0.79715
vt 0.00129 1.34715
vt -0.00129 1.35285
vt -1.21379 0.80285
f 357/1077 361/1078 364/1079 360/1080
vt -1.21121 0.79715
vt -1.21379 0.80285
vt -0.00129 1.35285
vt 0.00129 1.34715
f 358/1081 359/1082 363/1083 362/1084
vt -1.21379 0.80285
vt -0.00129 1.35285
vt -0.00129 1.35285
vt -1.21379 0.80285
f 360/1085 364/1086 363/1087 359/1088
vt -1.21121 0.79715
vt -1.21121 0.79715
vt 0.00129 1.34715
vt 0.00129 1.34715
f 357/1089 358/1090 362/1091 361/1092
vt -1.25313 0.79715
vt -1.25313 0.80285
vt -1.24687 0.80285
vt -1.24687 0.79715
f 365/1093 368/1094 367/1095 366/1096
vt -1.25313 1.34715
vt -1.24687 1.34715
vt -1.24687 1.35285
vt -1.25313 1.35285
f 369/1097 370/1098 371/1099 372/1100
vt -1.21121 0.79715
vt 0.00129 1.34715
vt -0.00129 1.35285
vt -1.21379 0.80285
f 365/1101 369/1102 372/1103 368/1104
vt -1.21121 0.79715
vt -1.21379 0.80285
vt -0.00129 1.35285
vt 0.00129 1.34715
f 366/1105 367/1106 371/1107 370/1108
vt -1.21379 0.80285
vt -0.00129 1.35285
vt -0.00129 1.35285
vt -1.21379 0.80285
f 368/1109 372/1110 371/1111 367/1112
vt -1.21121 0.79715
vt -1.21121 0.79715
vt 0.00129 1.34715
vt 0.00129 1.34715
f 365/1113 366/1114 370/1115 369/1116
vt -1.00313 0.79715
vt -1.00313 0.80285
vt -0.99687 0.80285
vt -0.99687 0.79715
f 373/1117 376/1118 375/1119 374/1120
vt -1.00313 1.34715
vt -0.99687 1.34715
vt -0.99687 1.35285
vt -1.00313 1.35285
f 377/1121 378/1122 379/1123 380/1124
vt -1.21121 0.79715
vt 0.00129 1.34715
vt -0.00129 1.35285
vt -1.21379 0.80285
f 373/1125 377/1126 380/1127 376/1128
vt -1.21121 0.79715
vt -1.21379 0.80285
vt -0.00129 1.35285
vt 0.00129 1.34715
f 374/1129 375/1130 379/1131 378/1132
vt -1.21379 0.80285
vt -0.00129 1.35285
vt -0.00129 1.35285
vt -1.21379 0.80285
f 376/1133 380/1134 379/1135 375/1136
vt -1.21121 0.79715
vt -1.21121 0.79715
vt 0.00129 1.34715
vt 0.00129 1.34715
f 373/1137 374/1138 378/1139 377/1140
vt -0.75313 0.79715
vt -0.75313 0.80285
vt -0.74687 0.80285
vt -0.74687 0.79715
f 381/1141 384/1142 383/1143 382/1144
vt -0.75313 1.34715
vt -0.74687 1.34715
vt -0.74687 1.35285
vt -0.75313 1.35285
f 385/1145 386/1146 387/1147 388/1148
vt -1.21121 0.79715
vt 0.00129 1.34715
vt -0.00129 1.35285
vt -1.21379 0.80285
f 381/1149 385/1150 388/1151 384/1152
vt -1.21121 0.79715
vt -1.21379 0.80285
vt -0.00129 1.35285
vt 0.00129 1.34715
f 382/1153 383/1154 387/1155 386/1156
vt -1.21379 0.80285
vt -0.00129 1.35285
vt -0.00129 1.35285
vt -1.21379 0.80285
f 384/1157 388/1158 387/1159 383/1160
vt -1.21121 0.79715
vt -1.21121 0.79715
vt 0.00129 1.34715
vt 0.00129 1.34715
f 381/1161 382/1162 386/1163 385/1164
vt -0.50313 0.79715
vt -0.50313 0.80285
vt -0.49688 0.80285
vt -0.49688 0.79715
f 389/1165 392/1166 391/1167 390/1168
vt -0.50313 1.34715
vt -0.49688 1.34715
vt -0.49688 1.35285
vt -0.50313 1.35285
f 393/1169 394/1170 395/1171 396/1172
vt -1.21121 0.79715
vt 0.00129 1.34715
vt -0.00129 1.35285
vt -1.21379 0.80285
f 389/1173 393/1174 396/1175 392/1176
vt -1.21121 0.79715
vt -1.21379 0.80285
vt -0.00129 1.35285
vt 0.00129 1.34715
f 390/1177 391/1178 395/1179 394/1180
vt -1.21379 0.80285
vt -0.00129 1.35285
vt -0.00129 1.35285
vt -1.21379 0.80285
f 392/1181 396/1182 395/1183 391/1184
vt -1.21121 0.79715
vt -1.21121 0.79715
vt 0.00129 1.34715
vt 0.00129 1.34715
f 389/1185 390/1186 394/1187 393/1188
vt -0.25312 0.79715
vt -0.25312 0.80285
vt -0.24688 0.80285
vt -0.24688 0.79715
f 397/1189 400/1190 399/1191 398/1192
vt -0.25312 1.34715
vt -0.24688 1.34715
vt -0.24688 1.35285
vt -0.25312 1.35285
f 401/1193 402/1194 403/1195 404/1196
vt -1.21121 0.79715
vt 0.00129 1.34715
vt -0.00129 1.35285
vt -1.21379 0.80285
f 397/1197 401/1198 404/1199 400/1200
vt -1.21121 0.79715
vt -1.21379 0.80285
vt -0.00129 1.35285
vt 0.00129 1.34715
f 398/1201 399/1202 403/1203 402/1204
vt -1.21379 0.80285
vt -0.00129 1.35285
vt -0.00129 1.35285
vt -1.21379 0.80285
f 400/1205 404/1206 403/1207 399/1208
vt -1.21121 0.79715
vt -1.21121 0.79715
vt 0.00129 1.34715
vt 0.00129 1.34715
f 397/1209 398/1210 402/1211 401/1212
vt -0.00313 0.79715
vt -0.00313 0.80285
vt 0.00313 0.80285
vt 0.00313 0.79715
f 405/1213 408/1214 407/1215 406/1216
vt -0.00313 1.34715
vt 0.00313 1.34715
vt 0.00313 1.35285
vt -0.00313 1.35285
f 409/1217 410/1218 411/1219 412/1220
vt -1.21121 0.79715
vt 0.00129 1.34715
vt -0.00129 1.35285
vt -1.21379 0.80285
f 405/1221 409/1222 412/1223 408/1224
vt -1.21121 0.79715
vt -1.21379 0.80285
vt -0.00129 1.35285
vt 0.00129 1.34715
f 406/1225 407/1226 411/1227 410/1228
vt -1.21379 0.80285
vt -0.00129 1.35285
vt -0.00129 1.35285
vt -1.21379 0.80285
f 408/1229 412/1230 411/1231 407/1232
vt -1.21121 0.79715
vt -1.21121 0.79715
vt 0.00129 1.34715
vt 0.00129 1.34715
f 405/1233 406/1234 410/1235 409/1236
vt 0.24688 0.79715
vt 0.24688 0.80285
vt 0.25312 0.80285
vt 0.25312 0.79715
f 413/1237 416/1238 415/1239 414/1240
vt 0.24688 1.34715
vt 0.25312 1.34715
vt 0.25312 1.35285
vt 0.24688 1.35285
f 417/1241 418/1242 419/1243 420/1244
vt -1.21121 0.79715
vt 0.00129 1.34715
vt -0.00129 1.35285
vt -1.21379 0.80285
f 413/1245 417/1246 420/1247 416/1248
vt -1.21121 0.79715
vt -1.21379 0.80285
vt -0.00129 1.35285
vt 0.00129 1.34715
f 414/1249 415/1250 419/1251 418/1252
vt -1.21379 0.80285
vt -0.00129 1.35285
vt -0.00129 1.35285
vt -1.21379 0.80285
f 416/1253 420/1254 419/1255 415/1256
vt -1.21121 0.79715
vt -1.21121 0.79715
vt 0.00129 1.34715
vt 0.00129 1.34715
f 413/1257 414/1258 418/1259 417/1260
vt 0.49688 0.79715
vt 0.49688 0.80285
vt 0.50313 0.80285
vt 0.50313 0.79715
f 421/1261 424/1262 423/1263 422/1264
vt 0.49688 1.34715
vt 0.50313 1.34715
vt 0.50313 1.35285
vt 0.49688 1.35285
f 425/1265 426/1266 427/1267 428/1268
vt -1.21121 0.79715
vt 0.00129 1.34715
vt -0.00129 1.35285
vt -1.21379 0.80285
f 421/1269 425/1270 428/1271 424/1272
vt -1.21121 0.79715
vt -1.21379 0.80285
vt -0.00129 1.35285
vt 0.00129 1.34715
f 422/1273 423/1274 427/1275 426/1276
vt -1.21379 0.80285
vt -0.00129 1.35285
vt -0.00129 1.35285
vt -1.21379 0.80285
f 424/1277 428/1278 427/1279 423/1280
vt -1.21121 0.79715
vt -1.21121 0.79715
vt 0.00129 1.34715
vt 0.00129 1.34715
f 421/1281 422/1282 426/1283 425/1284
vt 0.74687 0.79715
vt 0.74687 0.80285
vt 0.75313 0.80285
vt 0.75313 0.79715
f 429/1285 432/1286 431/1287 430/1288
vt 0.74687 1.34715
vt 0.75313 1.34715
vt 0.75313 1.35285
vt 0.74687 1.35285
f 433/1289 434/1290 435/1291 436/1292
vt -1.21121 0.79715
vt 0.00129 1.34715
vt -0.00129 1.35285
vt -1.21379 0.80285
f 429/1293 433/1294 436/1295 432/1296
vt -1.21121 0.79715
vt -1.21379 0.80285
vt -0.00129 1.35285
vt 0.00129 1.34715
f 430/1297 431/1298 435/1299 434/1300
vt -1.21379 0.80285
vt -0.00129 1.35285
vt -0.00129 1.35285
vt -1.21379 0.80285
f 432/1301 436/1302 435/1303 431/1304
vt -1.21121 0.79715
vt -1.21121 0.79715
vt 0.00129 1.34715
vt 0.00129 1.34715
f 429/1305 430/1306 434/1307 433/1308
vt 0.99687 0.79715
vt 0.99687 0.80285
vt 1.00313 0.80285
vt 1.00313 0.79715
f 437/1309 440/1310 439/1311 438/1312
vt 0.99687 1.34715
vt 1.00313 1.34715
vt 1.00313 1.35285
vt 0.99687 1.35285
f 441/1313 442/1314 443/1315 444/1316
vt -1.21121 0.79715
vt 0.00129 1.34715
vt -0.00129 1.35285
vt -1.21379 0.80285
f 437/1317 441/1318 444/1319 440/1320
vt -1.21121 0.79715
vt -1.21379 0.80285
vt -0.00129 1.35285
vt 0.00129 1.34715
f 438/1321 439/1322 443/1323 442/1324
vt -1.21379 0.80285
vt -0.00129 1.35285
vt -0.00129 1.35285
vt -1.21379 0.80285
f 440/1325 444/1326 443/1327 439/1328
vt -1.21121 0.79715
vt -1.21121 0.79715
vt 0.00129 1.34715
vt 0.00129 1.34715
f 437/1329 438/1330 442/1331 441/1332
vt 1.24687 0.79715
vt 1.24687 0.80285
vt 1.25313 0.80285
vt 1.25313 0.79715
f 445/1333 448/1334 447/1335 446/1336
vt 1.24687 1.34715
vt 1.25313 1.34715
vt 1.25313 1.35285
vt 1.24687 1.35285
f 449/1337 450/1338 451/1339 452/1340
vt -1.21121 0.79715
vt 0.00129 1.34715
vt -0.00129 1.35285
vt -1.21379 0.80285
f 445/1341 449/1342 452/1343 448/1344
vt -1.21121 0.79715
vt -1.21379 0.80285
vt -0.00129 1.35285
vt 0.00129 1.34715
f 446/1345 447/1346 451/1347 450/1348
vt -1.21379 0.80285
vt -0.00129 1.35285
vt -0.00129 1.35285
vt -1.21379 0.80285
f 448/1349 452/1350 451/1351 447/1352
vt -1.21121 0.79715
vt -1.21121 0.79715
vt 0.00129 1.34715
vt 0.00129 1.34715
f 445/1353 446/1354 450/1355 449/1356
vt 1.49687 0.79715
vt 1.49687 0.80285
vt 1.50313 0.80285
vt 1.50313 0.79715
f 453/1357 456/1358 455/1359 454/1360
vt 1.49687 1.34715
vt 1.50313 1.34715
vt 1.50313 1.35285
vt 1.49687 1.35285
f 457/1361 458/1362 459/1363 460/1364
vt -1.21121 0.79715
vt 0.00129 1.34715
vt -0.00129 1.35285
vt -1.21379 0.80285
f 453/1365 457/1366 460/1367 456/1368
vt -1.21121 0.79715
vt -1.21379 0.80285
vt -0.00129 1.35285
vt 0.00129 1.34715
f 454/1369 455/1370 459/1371 458/1372
vt -1.21379 0.80285
vt -0.00129 1.35285
vt -0.00129 1.35285
vt -1.21379 0.80285
f 456/1373 460/1374 459/1375 455/1376
vt -1.21121 0.79715
vt -1.21121 0.79715
vt 0.00129 1.34715
vt 0.00129 1.34715
f 453/1377 454/1378 458/1379 457/1380
vt -1.50313 1.34715
vt -1.50313 1.35285
vt -1.49687 1.35285
vt -1.49687 1.34715
f 461/1381 464/1382 463/1383 462/1384
vt -1.50313 0.79715
vt -1.49687 0.79715
vt -1.49687 0.80285
vt -1.50313 0.80285
f 465/1385 466/1386 467/1387 468/1388
vt -0.00129 1.34715
vt 1.21121 0.79715
vt 1.21379 0.80285
vt 0.00129 1.35285
f 461/1389 465/1390 468/1391 464/1392
vt -0.00129 1.34715
vt 0.00129 1.35285
vt 1.21379 0.80285
vt 1.21121 0.79715
f 462/1393 463/1394 467/1395 466/1396
vt 0.00129 1.35285
vt 1.21379 0.80285
vt 1.21379 0.80285
vt 0.00129 1.35285
f 464/1397 468/1398 467/1399 463/1400
vt -0.00129 1.34715
vt -0.00129 1.34715
vt 1.21121 0.79715
vt 1.21121 0.79715
f 461/1401 462/1402 466/1403 465/1404
vt -1.25313 1.34715
vt -1.25313 1.35285
vt -1.24687 1.35285
vt -1.24687 1.34715
f 469/1405 472/1406 471/1407 470/1408
vt -1.25313 0.79715
vt -1.24687 0.79715
vt -1.24687 0.80285
vt -1.25313 0.80285
f 473/1409 474/1410 475/1411 476/1412
vt -0.00129 1.34715
vt 1.21121 0.79715
vt 1.21379 0.80285
vt 0.00129 1.35285
f 469/1413 473/1414 476/1415 472/1416
vt -0.00129 1.34715
vt 0.00129 1.35285
vt 1.21379 0.80285
vt 1.21121 0.79715
f 470/1417 471/1418 475/1419 474/1420
vt 0.00129 1.35285
vt 1.21379 0.80285
vt 1.21379 0.80285
vt 0.00129 1.35285
f 472/1421 476/1422 475/1423 471/1424
vt -0.00129 1.34715
vt -0.00129 1.34715
vt 1.21121 0.79715
vt 1.21121 0.79715
f 469/1425 470/1426 474/1427 473/1428
vt -1.00313 1.34715
vt -1.00313 1.35285
vt -0.99687 1.35285
vt -0.99687 1.34715
f 477/1429 480/1430 479/1431 478/1432
vt -1.00313 0.79715
vt -0.99687 0.79715
vt -0.99687 0.80285
vt -1.00313 0.80285
f 481/1433 482/1434 483/1435 484/1436
vt -0.00129 1.34715
vt 1.21121 0.79715
vt 1.21379 0.80285
vt 0.00129 1.35285
f 477/1437 481/1438 484/1439 480/1440
vt -0.00129 1.34715
vt 0.00129 1.35285
vt 1.21379 0.80285
vt 1.21121 0.79715
f 478/1441 479/1442 483/1443 482/1444
vt 0.00129 1.35285
vt 1.21379 0.80285
vt 1.21379 0.80285
vt 0.00129 1.35285
f 480/1445 484/1446 483/1447 479/1448
vt -0.00129 1.34715
vt -0.00129 1.34715
vt 1.21121 0.79715
vt 1.21121 0.79715
f 477/1449 478/1450 482/1451 481/1452
vt -0.75313 1.34715
vt -0.75313 1.35285
vt -0.74687 1.35285
vt -0.74687 1.34715
f 485/1453 488/1454 487/1455 486/1456
vt -0.75313 0.79715
vt -0.74687 0.79715
vt -0.74687 0.80285
vt -0.75313 0.80285
f 489/1457 490/1458 491/1459 492/1460
vt -0.00129 1.34715
vt 1.21121 0.79715
vt 1.21379 0.80285
vt 0.00129 1.35285
f 485/1461 489/1462 492/1463 488/1464
vt -0.00129 1.34715
vt 0.00129 1.35285
vt 1.21379 0.80285
vt 1.21121 0.79715
f 486/1465 487/1466 491/1467 490/1468
vt 0.00129 1.35285
vt 1.21379 0.80285
vt 1.21379 0.80285
vt 0.00129 1.35285
f 488/1469 492/1470 491/1471 487/1472
vt -0.00129 1.34715
vt -0.00129 1.34715
vt 1.21121 0.79715
vt 1.21121 0.79715
f 485/1473 486/1474 490/1475 489/1476
vt -0.50313 1.34715
vt -0.50313 1.35285
vt -0.49688 1.35285
vt -0.49688 1.34715
f 493/1477 496/1478 495/1479 494/1480
vt -0.50313 0.79715
vt -0.49688 0.79715
vt -0.49688 0.80285
vt -0.50313 0.80285
f 497/1481 498/1482 499/1483 500/1484
vt -0.00129 1.34715
vt 1.21121 0.79715
vt 1.21379 0.80285
vt 0.00129 1.35285
f 493/1485 497/1486 500/1487 496/1488
vt -0.00129 1.34715
vt 0.00129 1.35285
vt 1.21379 0.80285
vt 1.21121 0.79715
f 494/1489 495/1490 499/1491 498/1492
vt 0.00129 1.35285
vt 1.21379 0.80285
vt 1.21379 0.80285
vt 0.00129 1.35285
f 496/1493 500/1494 499/1495 495/1496
vt -0.00129 1.34715
vt -0.00129 1.34715
vt 1.21121 0.79715
vt 1.21121 0.79715
f 493/1497 494/1498 498/1499 497/1500
vt -0.25312 1.34715
vt -0.25312 1.35285
vt -0.24688 1.35285
vt -0.24688 1.34715
f 501/1501 504/1502 503/1503 502/1504
vt -0.25312 0.79715
vt -0.24688 0.79715
vt -0.24688 0.80285
vt -0.25312 0.80285
f 505/1505 506/1506 507/1507 508/1508
vt -0.00129 1.34715
vt 1.21121 0.79715
vt 1.21379 0.80285
vt 0.00129 1.35285
f 501/1509 505/1510 508/1511 504/1512
vt -0.00129 1.34715
vt 0.00129 1.35285
vt 1.21379 0.80285
vt 1.21121 0.79715
f 502/1513 503/1514 507/1515 506/1516
vt 0.00129 1.35285
vt 1.21379 0.80285
vt 1.21379 0.80285
vt 0.00129 1.35285
f 504/1517 508/1518 507/1519 503/1520
vt -0.00129 1.34715
vt -0.00129 1.34715
vt 1.21121 0.79715
vt 1.21121 0.79715
f 501/1521 502/1522 506/1523 505/1524
vt -0.00313 1.34715
vt -0.00313 1.35285
vt 0.00313 1.35285
vt 0.00313 1.34715
f 509/1525 512/1526 511/1527 510/1528
vt -0.00313 0.79715
vt 0.00313 0.79715
vt 0.00313 0.80285
vt -0.00313 0.80285
f 513/1529 514/1530 515/1531 516/1532
vt -0.00129 1.34715
vt 1.21121 0.79715
vt 1.21379 0.80285
vt 0.00129 1.35285
f 509/1533 513/1534 516/1535 512/1536
vt -0.00129 1.34715
vt 0.00129 1.35285
vt 1.21379 0.80285
vt 1.21121 0.79715
f 510/1537 511/1538 515/1539 514/1540
vt 0.00129 1.35285
vt 1.21379 0.80285
vt 1.21379 0.80285
vt 0.00129 1.35285
f 512/1541 516/1542 515/1543 511/1544
vt -0.00129 1.34715
vt -0.00129 1.34715
vt 1.21121 0.79715
vt 1.21121 0.79715
f 509/1545 510/1546 514/1547 513/1548
vt 0.24688 1.34715
vt 0.24688 1.35285
vt 0.25312 1.35285
vt 0.25312 1.34715
f 517/1549 520/1550 519/1551 518/1552
vt 0.24688 0.79715
vt 0.25312 0.79715
vt 0.25312 0.80285
vt 0.24688 0.80285
f 521/1553 522/1554 523/1555 524/1556
vt -0.00129 1.34715
vt 1.21121 0.79715
vt 1.21379 0.80285
vt 0.00129 1.35285
f 517/1557 521/1558 524/1559 520/1560
vt -0.00129 1.34715
vt 0.00129 1.35285
vt 1.21379 0.80285
vt 1.21121 0.79715
f 518/1561 519/1562 523/1563 522/1564
vt 0.00129 1.35285
vt 1.21379 0.80285
vt 1.21379 0.80285
vt 0.00129 1.35285
f 520/1565 524/1566 523/1567 519/1568
vt -0.00129 1.34715
vt -0.00129 1.34715
vt 1.21121 0.79715
vt 1.21121 0.79715
f 517/1569 518/1570 522/1571 521/1572
vt 0.49688 1.34715
vt 0.49688 1.35285
vt 0.50313 1.35285
vt 0.50313 1.34715
f 525/1573 528/1574 527/1575 526/1576
vt 0.49688 0.79715
vt 0.50313 0.79715
vt 0.50313 0.80285
vt 0.49688 0.80285
f 529/1577 530/1578 531/1579 532/1580
vt -0.00129 1.34715
vt 1.21121 0.79715
vt 1.21379 0.80285
vt 0.00129 1.35285
f 525/1581 529/1582 532/1583 528/1584
vt -0.00129 1.34715
vt 0.00129 1.35285
vt 1.21379 0.80285
vt 1.21121 0.79715
f 526/1585 527/1586 531/1587 530/1588
vt 0.00129 1.35285
vt 1.21379 0.80285
vt 1.21379 0.80285
vt 0.00129 1.35285
f 528/1589 532/1590 531/1591 527/1592
vt -0.00129 1.34715
vt -0.00129 1.34715
vt 1.21121 0.79715
vt 1.21121 0.79715
f 525/1593 526/1594 530/1595 529/1596
vt 0.74687 1.34715
vt 0.74687 1.35285
vt 0.75313 1.35285
vt 0.75313 1.34715
f 533/1597 536/1598 535/1599 534/1600
vt 0.74687 0.79715
vt 0.75313 0.79715
vt 0.75313 0.80285
vt 0.74687 0.80285
f 537/1601 538/1602 539/1603 540/1604
vt -0.00129 1.34715
vt 1.21121 0.79715
vt 1.21379 0.80285
vt 0.00129 1.35285
f 533/1605 537/1606 540/1607 536/1608
vt -0.00129 1.34715
vt 0.00129 1.35285
vt 1.21379 0.80285
vt 1.21121 0.79715
f 534/1609 535/1610 539/1611 538/1612
vt 0.00129 1.35285
vt 1.21379 0.80285
vt 1.21379 0.80285
vt 0.00129 1.35285
f 536/1613 540/1614 539/1615 535/1616
vt -0.00129 1.34715
vt -0.00129 1.34715
vt 1.21121 0.79715
vt 1.21121 0.79715
f 533/1617 534/1618 538/1619 537/1620
vt 0.99687 1.34715
vt 0.99687 1.35285
vt 1.00313 1.35285
vt 1.00313 1.34715
f 541/1621 544/1622 543/1623 542/1624
vt 0.99687 0.79715
vt 1.00313 0.79715
vt 1.00313 0.80285
vt 0.99687 0.80285
f 545/1625 546/1626 547/1627 548/1628
vt -0.00129 1.34715
vt 1.21121 0.79715
vt 1.21379 0.80285
vt 0.00129 1.35285
f 541/1629 545/1630 548/1631 544/1632
vt -0.00129 1.34715
vt 0.00129 1.35285
vt 1.21379 0.80285
vt 1.21121 0.79715
f 542/1633 543/1634 547/1635 546/1636
vt 0.00129 1.35285
vt 1.21379 0.80285
vt 1.21379 0.80285
vt 0.00129 1.35285
f 544/1637 548/1638 547/1639 543/1640
vt -0.00129 1.34715
vt -0.00129 1.34715
vt 1.21121 0.79715
vt 1.21121 0.79715
f 541/1641 542/1642 546/1643 545/1644
vt 1.24687 1.34715
vt 1.24687 1.35285
vt 1.25313 1.35285
vt 1.25313 1.34715
f 549/1645 552/1646 551/1647 550/1648
vt 1.24687 0.79715
vt 1.25313 0.79715
vt 1.25313 0.80285
vt 1.24687 0.80285
f 553/1649 554/1650 555/1651 556/1652
vt -0.00129 1.34715
vt 1.21121 0.79715
vt 1.21379 0.80285
vt 0.00129 1.35285
f 549/1653 553/1654 556/1655 552/1656
vt -0.00129 1.34715
vt 0.00129 1.35285
vt 1.21379 0.80285
vt 1.21121 0.79715
f 550/1657 551/1658 555/1659 554/1660
vt 0.00129 1.35285
vt 1.21379 0.80285
vt 1.21379 0.80285
vt 0.00129 1.35285
f 552/1661 556/1662 555/1663 551/1664
vt -0.00129 1.34715
vt -0.00129 1.34715
vt 1.21121 0.79715
vt 1.21121 0.79715
f 549/1665 550/1666 554/1667 553/1668
vt 1.49687 1.34715
vt 1.49687 1.35285
vt 1.50313 1.35285
vt 1.50313 1.34715
f 557/1669 560/1670 559/1671 558/1672
vt 1.49687 0.79715
vt 1.50313 0.79715
vt 1.50313 0.80285
vt 1.49687 0.80285
f 561/1673 562/1674 563/1675 564/1676
vt -0.00129 1.34715
vt 1.21121 0.79715
vt 1.21379 0.80285
vt 0.00129 1.35285
f 557/1677 561/1678 564/1679 560/1680
vt -0.00129 1.34715
vt 0.00129 1.35285
vt 1.21379 0.80285
vt 1.21121 0.79715
f 558/1681 559/1682 563/1683 562/1684
vt 0.00129 1.35285
vt 1.21379 0.80285
vt 1.21379 0.80285
vt 0.00129 1.35285
f 560/1685 564/1686 563/1687 559/1688
vt -0.00129 1.34715
vt -0.00129 1.34715
vt 1.21121 0.79715
vt 1.21121 0.79715
f 557/1689 558/1690 562/1691 561/1692
o Roof
usemtl Roof
v -6.35000 3.02714 -4.81695
v 6.35000 3.02714 -4.81695
v 6.35000 3.17286 -4.88305
v -6.35000 3.17286 -4.88305
v -6.35000 5.22714 0.03305
v 6.35000 5.22714 0.03305
v 6.35000 5.37286 -0.03305
v -6.35000 5.37286 -0.03305
v -6.35000 5.22714 -0.03305
v 6.35000 5.22714 -0.03305
v 6.35000 5.37286 0.03305
v -6.35000 5.37286 0.03305
v -6.35000 3.02714 4.81695
v 6.35000 3.02714 4.81695
v 6.35000 3.17286 4.88305
v -6.35000 3.17286 4.88305
vt -1.58750 0.75679
vt -1.58750 0.79321
vt 1.58750 0.79321
vt 1.58750 0.75679
f 565/1693 568/1694 567/1695 566/1696
vt -1.58750 1.30679
vt 1.58750 1.30679
vt 1.58750 1.34321
vt -1.58750 1.34321
f 569/1697 570/1698 571/1699 572/1700
vt -1.20424 0.75679
vt 0.00826 1.30679
vt -0.00826 1.34321
vt -1.22076 0.79321
f 565/1701 569/1702 572/1703 568/1704
vt -1.20424 0.75679
vt -1.22076 0.79321
vt -0.00826 1.34321
vt 0.00826 1.30679
f 566/1705 567/1706 571/1707 570/1708
vt -1.58750 -1.22076
vt -1.58750 -0.00826
vt 1.58750 -0.00826
vt 1.58750 -1.22076
f 568/1709 572/1710 571/1711 567/1712
vt -1.58750 -1.20424
vt 1.58750 -1.20424
vt 1.58750 0.00826
vt -1.58750 0.00826
f 565/1713 566/1714 570/1715 569/1716
vt -1.58750 1.30679
vt -1.58750 1.34321
vt 1.58750 1.34321
vt 1.58750 1.30679
f 573/1717 576/1718 575/1719 574/1720
vt -1.58750 0.75679
vt 1.58750 0.75679
vt 1.58750 0.79321
vt -1.58750 0.79321
f 577/1721 578/1722 579/1723 580/1724
vt -0.00826 1.30679
vt 1.20424 0.75679
vt 1.22076 0.79321
vt 0.00826 1.34321
f 573/1725 577/1726 580/1727 576/1728
vt -0.00826 1.30679
vt 0.00826 1.34321
vt 1.22076 0.79321
vt 1.20424 0.75679
f 574/1729 575/1730 579/1731 578/1732
vt -1.58750 0.00826
vt -1.58750 1.22076
vt 1.58750 1.22076
vt 1.58750 0.00826
f 576/1733 580/1734 579/1735 575/1736
vt -1.58750 -0.00826
vt 1.58750 -0.00826
vt 1.58750 1.20424
vt -1.58750 1.20424
f 573/1737 574/1738 578/1739 577/1740
o Brick
usemtl Brick
v -3.32500 3.70000 1.29500
v -2.67500 3.70000 1.29500
v -2.67500 5.90000 1.29500
v -3.32500 5.90000 1.29500
v -3.32500 3.70000 1.94500
v -2.67500 3.70000 1.94500
v -2.67500 5.90000 1.94500
v -3.32500 5.90000 1.94500
vt 0.92500 -0.83125
vt 1.47500 -0.83125
vt 1.47500 -0.66875
vt 0.92500 -0.66875
f 581/1741 584/1742 583/1743 582/1744
vt 0.92500 -0.83125
vt 0.92500 -0.66875
vt 1.47500 -0.66875
vt 1.47500 -0.83125
f 585/1745 586/1746 587/1747 588/1748
vt 0.92500 0.32375
vt 0.92500 0.48625
vt 1.47500 0.48625
vt 1.47500 0.32375
f 581/1749 585/1750 588/1751 584/1752
vt 0.92500 0.32375
vt 1.47500 0.32375
vt 1.47500 0.48625
vt 0.92500 0.48625
f 582/1753 583/1754 587/1755 586/1756
vt -0.83125 0.32375
vt -0.83125 0.48625
vt -0.66875 0.48625
vt -0.66875 0.32375
f 584/1757 588/1758 587/1759 583/1760
vt -0.83125 0.32375
vt -0.66875 0.32375
vt -0.66875 0.48625
vt -0.83125 0.48625
f 581/1761 582/1762 586/1763 585/1764
o Wood
usemtl Wood
v -4.02000 0.00000 -6.06000
v -3.90000 0.00000 -6.06000
v -3.90000 2.70000 -6.06000
v -4.02000 2.70000 -6.06000
v -4.02000 0.00000 -5.94000
v -3.90000 0.00000 -5.94000
v -3.90000 2.70000 -5.94000
v -4.02000 2.70000 -5.94000
v 3.90000 0.00000 -6.06000
v 4.02000 0.00000 -6.06000
v 4.02000 2.70000 -6.06000
v 3.90000 2.70000 -6.06000
v 3.90000 0.00000 -5.94000
v 4.02000 0.00000 -5.94000
v 4.02000 2.70000 -5.94000
v 3.90000 2.70000 -5.94000
v -4.80000 2.69000 -6.50000
v 4.80000 2.69000 -6.50000
v 4.80000 2.81000 -6.50000
v -4.80000 2.81000 -6.50000
v -4.80000 2.69000 -4.50000
v 4.80000 2.69000 -4.50000
v 4.80000 2.81000 -4.50000
v -4.80000 2.81000 -4.50000
vt 0.00000 -1.00500
vt 0.67500 -1.00500
vt 0.67500 -0.97500
vt 0.00000 -0.97500
f 589/1765 592/1766 591/1767 590/1768
vt 0.00000 -1.00500
vt 0.00000 -0.97500
vt 0.67500 -0.97500
vt 0.67500 -1.00500
f 593/1769 594/1770 595/1771 596/1772
vt 0.00000 -1.51500
vt 0.00000 -1.48500
vt 0.67500 -1.48500
vt 0.67500 -1.51500
f 589/1773 593/1774 596/1775 592/1776
vt 0.00000 -1.51500
vt 0.67500 -1.51500
vt 0.67500 -1.48500
vt 0.00000 -1.48500
f 590/1777 591/1778 595/1779 594/1780
vt -1.00500 -1.51500
vt -1.00500 -1.48500
vt -0.97500 -1.48500
vt -0.97500 -1.51500
f 592/1781 596/1782 595/1783 591/1784
vt -1.00500 -1.51500
vt -0.97500 -1.51500
vt -0.97500 -1.48500
vt -1.00500 -1.48500
f 589/1785 590/1786 594/1787 593/1788
vt 0.00000 0.97500
vt 0.67500 0.97500
vt 0.67500 1.00500
vt 0.00000 1.00500
f 597/1789 600/1790 599/1791 598/1792
vt 0.00000 0.97500
vt 0.00000 1.00500
vt 0.67500 1.00500
vt 0.67500 0.97500
f 601/1793 602/1794 603/1795 604/1796
vt 0.00000 -1.51500
vt 0.00000 -1.48500
vt 0.67500 -1.48500
vt 0.67500 -1.51500
f 597/1797 601/1798 604/1799 600/1800
vt 0.00000 -1.51500
vt 0.67500 -1.51500
vt 0.67500 -1.48500
vt 0.00000 -1.48500
f 598/1801 599/1802 603/1803 602/1804
vt 0.97500 -1.51500
vt 0.97500 -1.48500
vt 1.00500 -1.48500
vt 1.00500 -1.51500
f 600/1805 604/1806 603/1807 599/1808
vt 0.97500 -1.51500
vt 1.00500 -1.51500
vt 1.00500 -1.48500
vt 0.97500 -1.48500
f 597/1809 598/1810 602/1811 601/1812
vt -1.20000 0.67250
vt -1.20000 0.70250
vt 1.20000 0.70250
vt 1.20000 0.67250
f 605/1813 608/1814 607/1815 606/1816
vt -1.20000 0.67250
vt 1.20000 0.67250
vt 1.20000 0.70250
vt -1.20000 0.70250
f 609/1817 610/1818 611/1819 612/1820
vt -1.62500 0.67250
vt -1.12500 0.67250
vt -1.12500 0.70250
vt -1.62500 0.70250
f 605/1821 609/1822 612/1823 608/1824
vt -1.62500 0.67250
vt -1.62500 0.70250
vt -1.12500 0.70250
vt -1.12500 0.67250
f 606/1825 607/1826 611/1827 610/1828
vt -1.20000 -1.62500
vt -1.20000 -1.12500
vt 1.20000 -1.12500
vt 1.20000 -1.62500
f 608/1829 612/1830 611/1831 607/1832
vt -1.20000 -1.62500
vt 1.20000 -1.62500
vt 1.20000 -1.12500
vt -1.20000 -1.12500
f 605/1833 606/1834 610/1835 609/1836
